G04 #@! TF.FileFunction,Legend,Top*
%FSLAX46Y46*%
G04 Gerber Fmt 4.6, Leading zero omitted, Abs format (unit mm)*
G04 Created by KiCad (PCBNEW 4.0.7-e2-6376~61~ubuntu18.04.1) date Tue Aug 27 15:06:58 2019*
%MOMM*%
%LPD*%
G01*
G04 APERTURE LIST*
%ADD10C,0.100000*%
%ADD11C,0.300000*%
%ADD12C,0.150000*%
%ADD13C,0.120000*%
%ADD14C,0.254000*%
%ADD15C,0.127000*%
%ADD16C,0.000200*%
%ADD17C,0.101600*%
%ADD18C,0.032512*%
G04 APERTURE END LIST*
D10*
D11*
X154965715Y-131325000D02*
X154822858Y-131253571D01*
X154608572Y-131253571D01*
X154394287Y-131325000D01*
X154251429Y-131467857D01*
X154180001Y-131610714D01*
X154108572Y-131896429D01*
X154108572Y-132110714D01*
X154180001Y-132396429D01*
X154251429Y-132539286D01*
X154394287Y-132682143D01*
X154608572Y-132753571D01*
X154751429Y-132753571D01*
X154965715Y-132682143D01*
X155037144Y-132610714D01*
X155037144Y-132110714D01*
X154751429Y-132110714D01*
X155537144Y-131253571D02*
X156537144Y-131253571D01*
X155537144Y-132753571D01*
X156537144Y-132753571D01*
X156894286Y-131253571D02*
X157751429Y-131253571D01*
X157322858Y-132753571D02*
X157322858Y-131253571D01*
X159394286Y-131753571D02*
X159394286Y-133253571D01*
X159394286Y-131825000D02*
X159537143Y-131753571D01*
X159822857Y-131753571D01*
X159965714Y-131825000D01*
X160037143Y-131896429D01*
X160108572Y-132039286D01*
X160108572Y-132467857D01*
X160037143Y-132610714D01*
X159965714Y-132682143D01*
X159822857Y-132753571D01*
X159537143Y-132753571D01*
X159394286Y-132682143D01*
X160751429Y-132753571D02*
X160751429Y-131753571D01*
X160751429Y-132039286D02*
X160822857Y-131896429D01*
X160894286Y-131825000D01*
X161037143Y-131753571D01*
X161180000Y-131753571D01*
X161894286Y-132753571D02*
X161751428Y-132682143D01*
X161680000Y-132610714D01*
X161608571Y-132467857D01*
X161608571Y-132039286D01*
X161680000Y-131896429D01*
X161751428Y-131825000D01*
X161894286Y-131753571D01*
X162108571Y-131753571D01*
X162251428Y-131825000D01*
X162322857Y-131896429D01*
X162394286Y-132039286D01*
X162394286Y-132467857D01*
X162322857Y-132610714D01*
X162251428Y-132682143D01*
X162108571Y-132753571D01*
X161894286Y-132753571D01*
X163037143Y-131753571D02*
X163037143Y-133039286D01*
X162965714Y-133182143D01*
X162822857Y-133253571D01*
X162751429Y-133253571D01*
X163037143Y-131253571D02*
X162965714Y-131325000D01*
X163037143Y-131396429D01*
X163108571Y-131325000D01*
X163037143Y-131253571D01*
X163037143Y-131396429D01*
X164322857Y-132682143D02*
X164180000Y-132753571D01*
X163894286Y-132753571D01*
X163751429Y-132682143D01*
X163680000Y-132539286D01*
X163680000Y-131967857D01*
X163751429Y-131825000D01*
X163894286Y-131753571D01*
X164180000Y-131753571D01*
X164322857Y-131825000D01*
X164394286Y-131967857D01*
X164394286Y-132110714D01*
X163680000Y-132253571D01*
X165680000Y-132682143D02*
X165537143Y-132753571D01*
X165251429Y-132753571D01*
X165108571Y-132682143D01*
X165037143Y-132610714D01*
X164965714Y-132467857D01*
X164965714Y-132039286D01*
X165037143Y-131896429D01*
X165108571Y-131825000D01*
X165251429Y-131753571D01*
X165537143Y-131753571D01*
X165680000Y-131825000D01*
X166108571Y-131753571D02*
X166680000Y-131753571D01*
X166322857Y-131253571D02*
X166322857Y-132539286D01*
X166394285Y-132682143D01*
X166537143Y-132753571D01*
X166680000Y-132753571D01*
X168322857Y-132753571D02*
X168322857Y-131253571D01*
X169180000Y-132753571D01*
X169180000Y-131253571D01*
X169894286Y-132753571D02*
X169894286Y-131753571D01*
X169894286Y-131253571D02*
X169822857Y-131325000D01*
X169894286Y-131396429D01*
X169965714Y-131325000D01*
X169894286Y-131253571D01*
X169894286Y-131396429D01*
X170465715Y-132753571D02*
X171251429Y-131753571D01*
X170465715Y-131753571D02*
X171251429Y-132753571D01*
X171822858Y-132753571D02*
X171822858Y-131753571D01*
X171822858Y-131253571D02*
X171751429Y-131325000D01*
X171822858Y-131396429D01*
X171894286Y-131325000D01*
X171822858Y-131253571D01*
X171822858Y-131396429D01*
X173108572Y-132682143D02*
X172965715Y-132753571D01*
X172680001Y-132753571D01*
X172537144Y-132682143D01*
X172465715Y-132539286D01*
X172465715Y-131967857D01*
X172537144Y-131825000D01*
X172680001Y-131753571D01*
X172965715Y-131753571D01*
X173108572Y-131825000D01*
X173180001Y-131967857D01*
X173180001Y-132110714D01*
X172465715Y-132253571D01*
X174751429Y-131753571D02*
X175322858Y-131753571D01*
X174965715Y-131253571D02*
X174965715Y-132539286D01*
X175037143Y-132682143D01*
X175180001Y-132753571D01*
X175322858Y-132753571D01*
X176465715Y-131753571D02*
X176465715Y-132753571D01*
X175822858Y-131753571D02*
X175822858Y-132539286D01*
X175894286Y-132682143D01*
X176037144Y-132753571D01*
X176251429Y-132753571D01*
X176394286Y-132682143D01*
X176465715Y-132610714D01*
X177180001Y-132753571D02*
X177180001Y-131253571D01*
X177180001Y-131825000D02*
X177322858Y-131753571D01*
X177608572Y-131753571D01*
X177751429Y-131825000D01*
X177822858Y-131896429D01*
X177894287Y-132039286D01*
X177894287Y-132467857D01*
X177822858Y-132610714D01*
X177751429Y-132682143D01*
X177608572Y-132753571D01*
X177322858Y-132753571D01*
X177180001Y-132682143D01*
X179108572Y-132682143D02*
X178965715Y-132753571D01*
X178680001Y-132753571D01*
X178537144Y-132682143D01*
X178465715Y-132539286D01*
X178465715Y-131967857D01*
X178537144Y-131825000D01*
X178680001Y-131753571D01*
X178965715Y-131753571D01*
X179108572Y-131825000D01*
X179180001Y-131967857D01*
X179180001Y-132110714D01*
X178465715Y-132253571D01*
X181608572Y-132682143D02*
X181465715Y-132753571D01*
X181180001Y-132753571D01*
X181037143Y-132682143D01*
X180965715Y-132610714D01*
X180894286Y-132467857D01*
X180894286Y-132039286D01*
X180965715Y-131896429D01*
X181037143Y-131825000D01*
X181180001Y-131753571D01*
X181465715Y-131753571D01*
X181608572Y-131825000D01*
X182465715Y-132753571D02*
X182322857Y-132682143D01*
X182251429Y-132539286D01*
X182251429Y-131253571D01*
X183251429Y-132753571D02*
X183108571Y-132682143D01*
X183037143Y-132610714D01*
X182965714Y-132467857D01*
X182965714Y-132039286D01*
X183037143Y-131896429D01*
X183108571Y-131825000D01*
X183251429Y-131753571D01*
X183465714Y-131753571D01*
X183608571Y-131825000D01*
X183680000Y-131896429D01*
X183751429Y-132039286D01*
X183751429Y-132467857D01*
X183680000Y-132610714D01*
X183608571Y-132682143D01*
X183465714Y-132753571D01*
X183251429Y-132753571D01*
X185037143Y-132682143D02*
X184894286Y-132753571D01*
X184608572Y-132753571D01*
X184465714Y-132682143D01*
X184394286Y-132610714D01*
X184322857Y-132467857D01*
X184322857Y-132039286D01*
X184394286Y-131896429D01*
X184465714Y-131825000D01*
X184608572Y-131753571D01*
X184894286Y-131753571D01*
X185037143Y-131825000D01*
X185680000Y-132753571D02*
X185680000Y-131253571D01*
X185822857Y-132182143D02*
X186251428Y-132753571D01*
X186251428Y-131753571D02*
X185680000Y-132325000D01*
X164465716Y-133803571D02*
X164965716Y-135303571D01*
X165465716Y-133803571D01*
X166251430Y-133803571D02*
X166394287Y-133803571D01*
X166537144Y-133875000D01*
X166608573Y-133946429D01*
X166680002Y-134089286D01*
X166751430Y-134375000D01*
X166751430Y-134732143D01*
X166680002Y-135017857D01*
X166608573Y-135160714D01*
X166537144Y-135232143D01*
X166394287Y-135303571D01*
X166251430Y-135303571D01*
X166108573Y-135232143D01*
X166037144Y-135160714D01*
X165965716Y-135017857D01*
X165894287Y-134732143D01*
X165894287Y-134375000D01*
X165965716Y-134089286D01*
X166037144Y-133946429D01*
X166108573Y-133875000D01*
X166251430Y-133803571D01*
X167394287Y-135160714D02*
X167465715Y-135232143D01*
X167394287Y-135303571D01*
X167322858Y-135232143D01*
X167394287Y-135160714D01*
X167394287Y-135303571D01*
X168894287Y-135303571D02*
X168037144Y-135303571D01*
X168465716Y-135303571D02*
X168465716Y-133803571D01*
X168322859Y-134017857D01*
X168180001Y-134160714D01*
X168037144Y-134232143D01*
X170608572Y-133946429D02*
X170680001Y-133875000D01*
X170822858Y-133803571D01*
X171180001Y-133803571D01*
X171322858Y-133875000D01*
X171394287Y-133946429D01*
X171465715Y-134089286D01*
X171465715Y-134232143D01*
X171394287Y-134446429D01*
X170537144Y-135303571D01*
X171465715Y-135303571D01*
X172394286Y-133803571D02*
X172537143Y-133803571D01*
X172680000Y-133875000D01*
X172751429Y-133946429D01*
X172822858Y-134089286D01*
X172894286Y-134375000D01*
X172894286Y-134732143D01*
X172822858Y-135017857D01*
X172751429Y-135160714D01*
X172680000Y-135232143D01*
X172537143Y-135303571D01*
X172394286Y-135303571D01*
X172251429Y-135232143D01*
X172180000Y-135160714D01*
X172108572Y-135017857D01*
X172037143Y-134732143D01*
X172037143Y-134375000D01*
X172108572Y-134089286D01*
X172180000Y-133946429D01*
X172251429Y-133875000D01*
X172394286Y-133803571D01*
X174322857Y-135303571D02*
X173465714Y-135303571D01*
X173894286Y-135303571D02*
X173894286Y-133803571D01*
X173751429Y-134017857D01*
X173608571Y-134160714D01*
X173465714Y-134232143D01*
X175037142Y-135303571D02*
X175322857Y-135303571D01*
X175465714Y-135232143D01*
X175537142Y-135160714D01*
X175680000Y-134946429D01*
X175751428Y-134660714D01*
X175751428Y-134089286D01*
X175680000Y-133946429D01*
X175608571Y-133875000D01*
X175465714Y-133803571D01*
X175180000Y-133803571D01*
X175037142Y-133875000D01*
X174965714Y-133946429D01*
X174894285Y-134089286D01*
X174894285Y-134446429D01*
X174965714Y-134589286D01*
X175037142Y-134660714D01*
X175180000Y-134732143D01*
X175465714Y-134732143D01*
X175608571Y-134660714D01*
X175680000Y-134589286D01*
X175751428Y-134446429D01*
D12*
X120015000Y-131445000D02*
X115570000Y-131445000D01*
X115570000Y-131445000D02*
X115570000Y-129540000D01*
X115570000Y-129540000D02*
X120015000Y-129540000D01*
X120015000Y-129540000D02*
X120015000Y-128270000D01*
X120015000Y-128270000D02*
X120015000Y-127635000D01*
X120015000Y-127635000D02*
X115570000Y-127635000D01*
X115570000Y-127635000D02*
X115570000Y-125730000D01*
X115570000Y-125730000D02*
X120015000Y-125730000D01*
X120015000Y-125730000D02*
X120015000Y-123825000D01*
X120015000Y-123825000D02*
X115570000Y-123825000D01*
X115570000Y-123825000D02*
X115570000Y-121920000D01*
X115570000Y-121920000D02*
X120015000Y-121920000D01*
X120015000Y-121920000D02*
X120015000Y-120015000D01*
X120015000Y-120015000D02*
X115570000Y-120015000D01*
X115570000Y-120015000D02*
X115570000Y-118110000D01*
X115570000Y-118110000D02*
X119380000Y-118110000D01*
X119380000Y-118110000D02*
X120015000Y-118110000D01*
D13*
X114170000Y-114935000D02*
X134750000Y-114935000D01*
X116840000Y-135255000D02*
X134750000Y-135255000D01*
X114170000Y-136525000D02*
X114170000Y-137925000D01*
X114170000Y-137925000D02*
X115570000Y-137925000D01*
X114170000Y-135255000D02*
X116840000Y-135255000D01*
X116840000Y-135255000D02*
X116840000Y-137925000D01*
X116840000Y-137925000D02*
X134750000Y-137925000D01*
X134750000Y-137925000D02*
X134750000Y-112275000D01*
X134750000Y-112265000D02*
X114170000Y-112265000D01*
X114170000Y-112275000D02*
X114170000Y-135255000D01*
X120540000Y-107470000D02*
X120540000Y-111570000D01*
X120540000Y-111570000D02*
X130840000Y-111570000D01*
X130840000Y-111570000D02*
X130840000Y-107470000D01*
X130840000Y-107470000D02*
X120540000Y-107470000D01*
X120540000Y-109220000D02*
X121040000Y-109220000D01*
X121040000Y-109220000D02*
X121040000Y-107970000D01*
X121040000Y-107970000D02*
X130340000Y-107970000D01*
X130340000Y-107970000D02*
X130340000Y-109220000D01*
X130340000Y-109220000D02*
X130840000Y-109220000D01*
X120540000Y-110070000D02*
X121540000Y-110070000D01*
X121540000Y-110070000D02*
X121540000Y-111570000D01*
X130840000Y-110070000D02*
X129840000Y-110070000D01*
X129840000Y-110070000D02*
X129840000Y-111570000D01*
X120240000Y-109370000D02*
X120240000Y-111870000D01*
X120240000Y-111870000D02*
X122740000Y-111870000D01*
X87900000Y-106740000D02*
G75*
G02X89900000Y-106740000I1000000J0D01*
G01*
X89900000Y-106740000D02*
X91150000Y-106740000D01*
X91150000Y-106740000D02*
X91150000Y-86300000D01*
X91150000Y-86300000D02*
X86650000Y-86300000D01*
X86650000Y-86300000D02*
X86650000Y-106740000D01*
X86650000Y-106740000D02*
X87900000Y-106740000D01*
X172030000Y-91335000D02*
X172030000Y-87735000D01*
X172018478Y-91373478D02*
G75*
G02X167580000Y-89535000I-1838478J1838478D01*
G01*
X172018478Y-87696522D02*
G75*
G03X167580000Y-89535000I-1838478J-1838478D01*
G01*
X125040000Y-91970000D02*
X125040000Y-88370000D01*
X125028478Y-92008478D02*
G75*
G02X120590000Y-90170000I-1838478J1838478D01*
G01*
X125028478Y-88331522D02*
G75*
G03X120590000Y-90170000I-1838478J-1838478D01*
G01*
X172030000Y-85620000D02*
X172030000Y-82020000D01*
X172018478Y-85658478D02*
G75*
G02X167580000Y-83820000I-1838478J1838478D01*
G01*
X172018478Y-81981522D02*
G75*
G03X167580000Y-83820000I-1838478J-1838478D01*
G01*
X125040000Y-86255000D02*
X125040000Y-82655000D01*
X125028478Y-86293478D02*
G75*
G02X120590000Y-84455000I-1838478J1838478D01*
G01*
X125028478Y-82616522D02*
G75*
G03X120590000Y-84455000I-1838478J-1838478D01*
G01*
X99100000Y-47590000D02*
X96480000Y-47590000D01*
X96480000Y-47590000D02*
X96480000Y-54010000D01*
X96480000Y-54010000D02*
X99100000Y-54010000D01*
X99100000Y-54010000D02*
X99100000Y-47590000D01*
X97790000Y-46700000D02*
X97790000Y-47590000D01*
X97790000Y-54900000D02*
X97790000Y-54010000D01*
X120690000Y-47590000D02*
X118070000Y-47590000D01*
X118070000Y-47590000D02*
X118070000Y-54010000D01*
X118070000Y-54010000D02*
X120690000Y-54010000D01*
X120690000Y-54010000D02*
X120690000Y-47590000D01*
X119380000Y-46700000D02*
X119380000Y-47590000D01*
X119380000Y-54900000D02*
X119380000Y-54010000D01*
X124500000Y-47590000D02*
X121880000Y-47590000D01*
X121880000Y-47590000D02*
X121880000Y-54010000D01*
X121880000Y-54010000D02*
X124500000Y-54010000D01*
X124500000Y-54010000D02*
X124500000Y-47590000D01*
X123190000Y-46700000D02*
X123190000Y-47590000D01*
X123190000Y-54900000D02*
X123190000Y-54010000D01*
X128310000Y-47590000D02*
X125690000Y-47590000D01*
X125690000Y-47590000D02*
X125690000Y-54010000D01*
X125690000Y-54010000D02*
X128310000Y-54010000D01*
X128310000Y-54010000D02*
X128310000Y-47590000D01*
X127000000Y-46700000D02*
X127000000Y-47590000D01*
X127000000Y-54900000D02*
X127000000Y-54010000D01*
X145455000Y-47590000D02*
X142835000Y-47590000D01*
X142835000Y-47590000D02*
X142835000Y-54010000D01*
X142835000Y-54010000D02*
X145455000Y-54010000D01*
X145455000Y-54010000D02*
X145455000Y-47590000D01*
X144145000Y-46700000D02*
X144145000Y-47590000D01*
X144145000Y-54900000D02*
X144145000Y-54010000D01*
X167680000Y-47590000D02*
X165060000Y-47590000D01*
X165060000Y-47590000D02*
X165060000Y-54010000D01*
X165060000Y-54010000D02*
X167680000Y-54010000D01*
X167680000Y-54010000D02*
X167680000Y-47590000D01*
X166370000Y-46700000D02*
X166370000Y-47590000D01*
X166370000Y-54900000D02*
X166370000Y-54010000D01*
X171490000Y-47590000D02*
X168870000Y-47590000D01*
X168870000Y-47590000D02*
X168870000Y-54010000D01*
X168870000Y-54010000D02*
X171490000Y-54010000D01*
X171490000Y-54010000D02*
X171490000Y-47590000D01*
X170180000Y-46700000D02*
X170180000Y-47590000D01*
X170180000Y-54900000D02*
X170180000Y-54010000D01*
X175300000Y-47590000D02*
X172680000Y-47590000D01*
X172680000Y-47590000D02*
X172680000Y-54010000D01*
X172680000Y-54010000D02*
X175300000Y-54010000D01*
X175300000Y-54010000D02*
X175300000Y-47590000D01*
X173990000Y-46700000D02*
X173990000Y-47590000D01*
X173990000Y-54900000D02*
X173990000Y-54010000D01*
X193080000Y-47590000D02*
X190460000Y-47590000D01*
X190460000Y-47590000D02*
X190460000Y-54010000D01*
X190460000Y-54010000D02*
X193080000Y-54010000D01*
X193080000Y-54010000D02*
X193080000Y-47590000D01*
X191770000Y-46700000D02*
X191770000Y-47590000D01*
X191770000Y-54900000D02*
X191770000Y-54010000D01*
X212765000Y-47590000D02*
X210145000Y-47590000D01*
X210145000Y-47590000D02*
X210145000Y-54010000D01*
X210145000Y-54010000D02*
X212765000Y-54010000D01*
X212765000Y-54010000D02*
X212765000Y-47590000D01*
X211455000Y-46700000D02*
X211455000Y-47590000D01*
X211455000Y-54900000D02*
X211455000Y-54010000D01*
X83650000Y-130235000D02*
X83650000Y-114875000D01*
X83650000Y-114875000D02*
X80990000Y-114875000D01*
X80990000Y-114875000D02*
X80990000Y-130235000D01*
X80990000Y-130235000D02*
X83650000Y-130235000D01*
X80990000Y-129285000D02*
X74990000Y-129285000D01*
X74990000Y-129285000D02*
X74990000Y-128525000D01*
X74990000Y-128525000D02*
X80990000Y-128525000D01*
X80990000Y-129225000D02*
X74990000Y-129225000D01*
X80990000Y-129105000D02*
X74990000Y-129105000D01*
X80990000Y-128985000D02*
X74990000Y-128985000D01*
X80990000Y-128865000D02*
X74990000Y-128865000D01*
X80990000Y-128745000D02*
X74990000Y-128745000D01*
X80990000Y-128625000D02*
X74990000Y-128625000D01*
X83980000Y-129285000D02*
X83650000Y-129285000D01*
X83980000Y-128525000D02*
X83650000Y-128525000D01*
X83650000Y-127635000D02*
X80990000Y-127635000D01*
X80990000Y-126745000D02*
X74990000Y-126745000D01*
X74990000Y-126745000D02*
X74990000Y-125985000D01*
X74990000Y-125985000D02*
X80990000Y-125985000D01*
X84047071Y-126745000D02*
X83650000Y-126745000D01*
X84047071Y-125985000D02*
X83650000Y-125985000D01*
X83650000Y-125095000D02*
X80990000Y-125095000D01*
X80990000Y-124205000D02*
X74990000Y-124205000D01*
X74990000Y-124205000D02*
X74990000Y-123445000D01*
X74990000Y-123445000D02*
X80990000Y-123445000D01*
X84047071Y-124205000D02*
X83650000Y-124205000D01*
X84047071Y-123445000D02*
X83650000Y-123445000D01*
X83650000Y-122555000D02*
X80990000Y-122555000D01*
X80990000Y-121665000D02*
X74990000Y-121665000D01*
X74990000Y-121665000D02*
X74990000Y-120905000D01*
X74990000Y-120905000D02*
X80990000Y-120905000D01*
X84047071Y-121665000D02*
X83650000Y-121665000D01*
X84047071Y-120905000D02*
X83650000Y-120905000D01*
X83650000Y-120015000D02*
X80990000Y-120015000D01*
X80990000Y-119125000D02*
X74990000Y-119125000D01*
X74990000Y-119125000D02*
X74990000Y-118365000D01*
X74990000Y-118365000D02*
X80990000Y-118365000D01*
X84047071Y-119125000D02*
X83650000Y-119125000D01*
X84047071Y-118365000D02*
X83650000Y-118365000D01*
X83650000Y-117475000D02*
X80990000Y-117475000D01*
X80990000Y-116585000D02*
X74990000Y-116585000D01*
X74990000Y-116585000D02*
X74990000Y-115825000D01*
X74990000Y-115825000D02*
X80990000Y-115825000D01*
X84047071Y-116585000D02*
X83650000Y-116585000D01*
X84047071Y-115825000D02*
X83650000Y-115825000D01*
X86360000Y-128905000D02*
X86360000Y-130175000D01*
X86360000Y-130175000D02*
X85090000Y-130175000D01*
X109490000Y-106740000D02*
G75*
G02X111490000Y-106740000I1000000J0D01*
G01*
X111490000Y-106740000D02*
X112740000Y-106740000D01*
X112740000Y-106740000D02*
X112740000Y-86300000D01*
X112740000Y-86300000D02*
X108240000Y-86300000D01*
X108240000Y-86300000D02*
X108240000Y-106740000D01*
X108240000Y-106740000D02*
X109490000Y-106740000D01*
X134890000Y-106740000D02*
G75*
G02X136890000Y-106740000I1000000J0D01*
G01*
X136890000Y-106740000D02*
X138140000Y-106740000D01*
X138140000Y-106740000D02*
X138140000Y-86300000D01*
X138140000Y-86300000D02*
X133640000Y-86300000D01*
X133640000Y-86300000D02*
X133640000Y-106740000D01*
X133640000Y-106740000D02*
X134890000Y-106740000D01*
X156480000Y-106740000D02*
G75*
G02X158480000Y-106740000I1000000J0D01*
G01*
X158480000Y-106740000D02*
X159730000Y-106740000D01*
X159730000Y-106740000D02*
X159730000Y-86300000D01*
X159730000Y-86300000D02*
X155230000Y-86300000D01*
X155230000Y-86300000D02*
X155230000Y-106740000D01*
X155230000Y-106740000D02*
X156480000Y-106740000D01*
X181880000Y-106740000D02*
G75*
G02X183880000Y-106740000I1000000J0D01*
G01*
X183880000Y-106740000D02*
X185130000Y-106740000D01*
X185130000Y-106740000D02*
X185130000Y-86300000D01*
X185130000Y-86300000D02*
X180630000Y-86300000D01*
X180630000Y-86300000D02*
X180630000Y-106740000D01*
X180630000Y-106740000D02*
X181880000Y-106740000D01*
X203470000Y-106740000D02*
G75*
G02X205470000Y-106740000I1000000J0D01*
G01*
X205470000Y-106740000D02*
X206720000Y-106740000D01*
X206720000Y-106740000D02*
X206720000Y-86300000D01*
X206720000Y-86300000D02*
X202220000Y-86300000D01*
X202220000Y-86300000D02*
X202220000Y-106740000D01*
X202220000Y-106740000D02*
X203470000Y-106740000D01*
D14*
X78978125Y-79771874D02*
G75*
G03X98821875Y-79771875I9921875J8325441D01*
G01*
X98821875Y-59928125D02*
X98821875Y-79771875D01*
X78978125Y-79771875D02*
X78978125Y-59928125D01*
D15*
X91440000Y-69850000D02*
G75*
G03X91440000Y-69850000I-2540000J0D01*
G01*
D14*
X78978125Y-59928126D02*
G75*
G02X98821875Y-59928125I9921875J-8325441D01*
G01*
X100568125Y-79771874D02*
G75*
G03X120411875Y-79771875I9921875J8325441D01*
G01*
X120411875Y-59928125D02*
X120411875Y-79771875D01*
X100568125Y-79771875D02*
X100568125Y-59928125D01*
D15*
X113030000Y-69850000D02*
G75*
G03X113030000Y-69850000I-2540000J0D01*
G01*
D14*
X100568125Y-59928126D02*
G75*
G02X120411875Y-59928125I9921875J-8325441D01*
G01*
X125968125Y-79771874D02*
G75*
G03X145811875Y-79771875I9921875J8325441D01*
G01*
X145811875Y-59928125D02*
X145811875Y-79771875D01*
X125968125Y-79771875D02*
X125968125Y-59928125D01*
D15*
X138430000Y-69850000D02*
G75*
G03X138430000Y-69850000I-2540000J0D01*
G01*
D14*
X125968125Y-59928126D02*
G75*
G02X145811875Y-59928125I9921875J-8325441D01*
G01*
X147558125Y-79771874D02*
G75*
G03X167401875Y-79771875I9921875J8325441D01*
G01*
X167401875Y-59928125D02*
X167401875Y-79771875D01*
X147558125Y-79771875D02*
X147558125Y-59928125D01*
D15*
X160020000Y-69850000D02*
G75*
G03X160020000Y-69850000I-2540000J0D01*
G01*
D14*
X147558125Y-59928126D02*
G75*
G02X167401875Y-59928125I9921875J-8325441D01*
G01*
X172958125Y-79771874D02*
G75*
G03X192801875Y-79771875I9921875J8325441D01*
G01*
X192801875Y-59928125D02*
X192801875Y-79771875D01*
X172958125Y-79771875D02*
X172958125Y-59928125D01*
D15*
X185420000Y-69850000D02*
G75*
G03X185420000Y-69850000I-2540000J0D01*
G01*
D14*
X172958125Y-59928126D02*
G75*
G02X192801875Y-59928125I9921875J-8325441D01*
G01*
X194548125Y-79771874D02*
G75*
G03X214391875Y-79771875I9921875J8325441D01*
G01*
X214391875Y-59928125D02*
X214391875Y-79771875D01*
X194548125Y-79771875D02*
X194548125Y-59928125D01*
D15*
X207010000Y-69850000D02*
G75*
G03X207010000Y-69850000I-2540000J0D01*
G01*
D14*
X194548125Y-59928126D02*
G75*
G02X214391875Y-59928125I9921875J-8325441D01*
G01*
D16*
X169545000Y-74295000D02*
G75*
G02X170815000Y-74295000I635000J635000D01*
G01*
X171976000Y-73660000D02*
G75*
G03X171976000Y-73660000I-1796000J0D01*
G01*
X171599900Y-73660000D02*
G75*
G03X171599900Y-73660000I-1419900J0D01*
G01*
X169545000Y-66675000D02*
G75*
G02X170815000Y-66675000I635000J635000D01*
G01*
X171976000Y-66040000D02*
G75*
G03X171976000Y-66040000I-1796000J0D01*
G01*
X171599900Y-66040000D02*
G75*
G03X171599900Y-66040000I-1419900J0D01*
G01*
X122555000Y-74295000D02*
G75*
G02X123825000Y-74295000I635000J635000D01*
G01*
X124986000Y-73660000D02*
G75*
G03X124986000Y-73660000I-1796000J0D01*
G01*
X124609900Y-73660000D02*
G75*
G03X124609900Y-73660000I-1419900J0D01*
G01*
X122555000Y-66675000D02*
G75*
G02X123825000Y-66675000I635000J635000D01*
G01*
X124986000Y-66040000D02*
G75*
G03X124986000Y-66040000I-1796000J0D01*
G01*
X124609900Y-66040000D02*
G75*
G03X124609900Y-66040000I-1419900J0D01*
G01*
D13*
X181035000Y-123555000D02*
G75*
G02X181035000Y-121555000I0J1000000D01*
G01*
X181035000Y-121555000D02*
X181035000Y-120305000D01*
X181035000Y-120305000D02*
X160595000Y-120305000D01*
X160595000Y-120305000D02*
X160595000Y-124805000D01*
X160595000Y-124805000D02*
X181035000Y-124805000D01*
X181035000Y-124805000D02*
X181035000Y-123555000D01*
X111185000Y-123555000D02*
G75*
G02X111185000Y-121555000I0J1000000D01*
G01*
X111185000Y-121555000D02*
X111185000Y-120305000D01*
X111185000Y-120305000D02*
X90745000Y-120305000D01*
X90745000Y-120305000D02*
X90745000Y-124805000D01*
X90745000Y-124805000D02*
X111185000Y-124805000D01*
X111185000Y-124805000D02*
X111185000Y-123555000D01*
X157540000Y-123555000D02*
G75*
G02X157540000Y-121555000I0J1000000D01*
G01*
X157540000Y-121555000D02*
X157540000Y-120305000D01*
X157540000Y-120305000D02*
X137100000Y-120305000D01*
X137100000Y-120305000D02*
X137100000Y-124805000D01*
X137100000Y-124805000D02*
X157540000Y-124805000D01*
X157540000Y-124805000D02*
X157540000Y-123555000D01*
X204530000Y-123555000D02*
G75*
G02X204530000Y-121555000I0J1000000D01*
G01*
X204530000Y-121555000D02*
X204530000Y-120305000D01*
X204530000Y-120305000D02*
X184090000Y-120305000D01*
X184090000Y-120305000D02*
X184090000Y-124805000D01*
X184090000Y-124805000D02*
X204530000Y-124805000D01*
X204530000Y-124805000D02*
X204530000Y-123555000D01*
X214785000Y-111235000D02*
X218885000Y-111235000D01*
X218885000Y-111235000D02*
X218885000Y-100935000D01*
X218885000Y-100935000D02*
X214785000Y-100935000D01*
X214785000Y-100935000D02*
X214785000Y-111235000D01*
X216535000Y-111235000D02*
X216535000Y-110735000D01*
X216535000Y-110735000D02*
X215285000Y-110735000D01*
X215285000Y-110735000D02*
X215285000Y-101435000D01*
X215285000Y-101435000D02*
X216535000Y-101435000D01*
X216535000Y-101435000D02*
X216535000Y-100935000D01*
X217385000Y-111235000D02*
X217385000Y-110235000D01*
X217385000Y-110235000D02*
X218885000Y-110235000D01*
X217385000Y-100935000D02*
X217385000Y-101935000D01*
X217385000Y-101935000D02*
X218885000Y-101935000D01*
X216685000Y-111535000D02*
X219185000Y-111535000D01*
X219185000Y-111535000D02*
X219185000Y-109035000D01*
X206495000Y-137895000D02*
X201255000Y-137895000D01*
X206495000Y-135155000D02*
X201255000Y-135155000D01*
X206495000Y-137895000D02*
X206495000Y-137580000D01*
X206495000Y-135470000D02*
X206495000Y-135155000D01*
X201255000Y-137895000D02*
X201255000Y-137580000D01*
X201255000Y-135470000D02*
X201255000Y-135155000D01*
X194190000Y-135155000D02*
X199430000Y-135155000D01*
X194190000Y-137895000D02*
X199430000Y-137895000D01*
X194190000Y-135155000D02*
X194190000Y-135470000D01*
X194190000Y-137580000D02*
X194190000Y-137895000D01*
X199430000Y-135155000D02*
X199430000Y-135470000D01*
X199430000Y-137580000D02*
X199430000Y-137895000D01*
X215185000Y-115415000D02*
X223985000Y-115415000D01*
X223985000Y-115415000D02*
X223985000Y-124615000D01*
X209285000Y-118115000D02*
X209285000Y-115415000D01*
X209285000Y-115415000D02*
X211185000Y-115415000D01*
X223985000Y-124615000D02*
X209285000Y-124615000D01*
X209285000Y-124615000D02*
X209285000Y-122015000D01*
X205780000Y-134700000D02*
X195540000Y-134700000D01*
X205780000Y-130059000D02*
X195540000Y-130059000D01*
X205780000Y-134700000D02*
X205780000Y-130059000D01*
X195540000Y-134700000D02*
X195540000Y-130059000D01*
X205780000Y-133190000D02*
X195540000Y-133190000D01*
X202510000Y-134700000D02*
X202510000Y-133190000D01*
X198809000Y-134700000D02*
X198809000Y-133190000D01*
D12*
X112482381Y-130936905D02*
X113291905Y-130936905D01*
X113387143Y-130889286D01*
X113434762Y-130841667D01*
X113482381Y-130746429D01*
X113482381Y-130555952D01*
X113434762Y-130460714D01*
X113387143Y-130413095D01*
X113291905Y-130365476D01*
X112482381Y-130365476D01*
X112577619Y-129936905D02*
X112530000Y-129889286D01*
X112482381Y-129794048D01*
X112482381Y-129555952D01*
X112530000Y-129460714D01*
X112577619Y-129413095D01*
X112672857Y-129365476D01*
X112768095Y-129365476D01*
X112910952Y-129413095D01*
X113482381Y-129984524D01*
X113482381Y-129365476D01*
X132802381Y-129618810D02*
X133611905Y-129618810D01*
X133707143Y-129571191D01*
X133754762Y-129523572D01*
X133802381Y-129428334D01*
X133802381Y-129237857D01*
X133754762Y-129142619D01*
X133707143Y-129095000D01*
X133611905Y-129047381D01*
X132802381Y-129047381D01*
X133754762Y-128618810D02*
X133802381Y-128475953D01*
X133802381Y-128237857D01*
X133754762Y-128142619D01*
X133707143Y-128095000D01*
X133611905Y-128047381D01*
X133516667Y-128047381D01*
X133421429Y-128095000D01*
X133373810Y-128142619D01*
X133326190Y-128237857D01*
X133278571Y-128428334D01*
X133230952Y-128523572D01*
X133183333Y-128571191D01*
X133088095Y-128618810D01*
X132992857Y-128618810D01*
X132897619Y-128571191D01*
X132850000Y-128523572D01*
X132802381Y-128428334D01*
X132802381Y-128190238D01*
X132850000Y-128047381D01*
X133278571Y-127285476D02*
X133326190Y-127142619D01*
X133373810Y-127095000D01*
X133469048Y-127047381D01*
X133611905Y-127047381D01*
X133707143Y-127095000D01*
X133754762Y-127142619D01*
X133802381Y-127237857D01*
X133802381Y-127618810D01*
X132802381Y-127618810D01*
X132802381Y-127285476D01*
X132850000Y-127190238D01*
X132897619Y-127142619D01*
X132992857Y-127095000D01*
X133088095Y-127095000D01*
X133183333Y-127142619D01*
X133230952Y-127190238D01*
X133278571Y-127285476D01*
X133278571Y-127618810D01*
X133278571Y-125523571D02*
X133326190Y-125380714D01*
X133373810Y-125333095D01*
X133469048Y-125285476D01*
X133611905Y-125285476D01*
X133707143Y-125333095D01*
X133754762Y-125380714D01*
X133802381Y-125475952D01*
X133802381Y-125856905D01*
X132802381Y-125856905D01*
X132802381Y-125523571D01*
X132850000Y-125428333D01*
X132897619Y-125380714D01*
X132992857Y-125333095D01*
X133088095Y-125333095D01*
X133183333Y-125380714D01*
X133230952Y-125428333D01*
X133278571Y-125523571D01*
X133278571Y-125856905D01*
X132802381Y-124666429D02*
X132802381Y-124475952D01*
X132850000Y-124380714D01*
X132945238Y-124285476D01*
X133135714Y-124237857D01*
X133469048Y-124237857D01*
X133659524Y-124285476D01*
X133754762Y-124380714D01*
X133802381Y-124475952D01*
X133802381Y-124666429D01*
X133754762Y-124761667D01*
X133659524Y-124856905D01*
X133469048Y-124904524D01*
X133135714Y-124904524D01*
X132945238Y-124856905D01*
X132850000Y-124761667D01*
X132802381Y-124666429D01*
X132802381Y-123952143D02*
X132802381Y-123380714D01*
X133802381Y-123666429D02*
X132802381Y-123666429D01*
X132802381Y-123190238D02*
X132802381Y-122618809D01*
X133802381Y-122904524D02*
X132802381Y-122904524D01*
X132802381Y-122095000D02*
X132802381Y-121904523D01*
X132850000Y-121809285D01*
X132945238Y-121714047D01*
X133135714Y-121666428D01*
X133469048Y-121666428D01*
X133659524Y-121714047D01*
X133754762Y-121809285D01*
X133802381Y-121904523D01*
X133802381Y-122095000D01*
X133754762Y-122190238D01*
X133659524Y-122285476D01*
X133469048Y-122333095D01*
X133135714Y-122333095D01*
X132945238Y-122285476D01*
X132850000Y-122190238D01*
X132802381Y-122095000D01*
X133802381Y-121237857D02*
X132802381Y-121237857D01*
X133516667Y-120904523D01*
X132802381Y-120571190D01*
X133802381Y-120571190D01*
X125356667Y-105672381D02*
X125356667Y-106386667D01*
X125309047Y-106529524D01*
X125213809Y-106624762D01*
X125070952Y-106672381D01*
X124975714Y-106672381D01*
X125737619Y-105672381D02*
X126356667Y-105672381D01*
X126023333Y-106053333D01*
X126166191Y-106053333D01*
X126261429Y-106100952D01*
X126309048Y-106148571D01*
X126356667Y-106243810D01*
X126356667Y-106481905D01*
X126309048Y-106577143D01*
X126261429Y-106624762D01*
X126166191Y-106672381D01*
X125880476Y-106672381D01*
X125785238Y-106624762D01*
X125737619Y-106577143D01*
X88138095Y-107192381D02*
X88138095Y-108001905D01*
X88185714Y-108097143D01*
X88233333Y-108144762D01*
X88328571Y-108192381D01*
X88519048Y-108192381D01*
X88614286Y-108144762D01*
X88661905Y-108097143D01*
X88709524Y-108001905D01*
X88709524Y-107192381D01*
X89233333Y-108192381D02*
X89423809Y-108192381D01*
X89519048Y-108144762D01*
X89566667Y-108097143D01*
X89661905Y-107954286D01*
X89709524Y-107763810D01*
X89709524Y-107382857D01*
X89661905Y-107287619D01*
X89614286Y-107240000D01*
X89519048Y-107192381D01*
X89328571Y-107192381D01*
X89233333Y-107240000D01*
X89185714Y-107287619D01*
X89138095Y-107382857D01*
X89138095Y-107620952D01*
X89185714Y-107716190D01*
X89233333Y-107763810D01*
X89328571Y-107811429D01*
X89519048Y-107811429D01*
X89614286Y-107763810D01*
X89661905Y-107716190D01*
X89709524Y-107620952D01*
X167167619Y-89630238D02*
X167120000Y-89725476D01*
X167024762Y-89820714D01*
X166881905Y-89963571D01*
X166834286Y-90058810D01*
X166834286Y-90154048D01*
X167072381Y-90106429D02*
X167024762Y-90201667D01*
X166929524Y-90296905D01*
X166739048Y-90344524D01*
X166405714Y-90344524D01*
X166215238Y-90296905D01*
X166120000Y-90201667D01*
X166072381Y-90106429D01*
X166072381Y-89915952D01*
X166120000Y-89820714D01*
X166215238Y-89725476D01*
X166405714Y-89677857D01*
X166739048Y-89677857D01*
X166929524Y-89725476D01*
X167024762Y-89820714D01*
X167072381Y-89915952D01*
X167072381Y-90106429D01*
X167072381Y-88725476D02*
X167072381Y-89296905D01*
X167072381Y-89011191D02*
X166072381Y-89011191D01*
X166215238Y-89106429D01*
X166310476Y-89201667D01*
X166358095Y-89296905D01*
X120177619Y-90265238D02*
X120130000Y-90360476D01*
X120034762Y-90455714D01*
X119891905Y-90598571D01*
X119844286Y-90693810D01*
X119844286Y-90789048D01*
X120082381Y-90741429D02*
X120034762Y-90836667D01*
X119939524Y-90931905D01*
X119749048Y-90979524D01*
X119415714Y-90979524D01*
X119225238Y-90931905D01*
X119130000Y-90836667D01*
X119082381Y-90741429D01*
X119082381Y-90550952D01*
X119130000Y-90455714D01*
X119225238Y-90360476D01*
X119415714Y-90312857D01*
X119749048Y-90312857D01*
X119939524Y-90360476D01*
X120034762Y-90455714D01*
X120082381Y-90550952D01*
X120082381Y-90741429D01*
X119177619Y-89931905D02*
X119130000Y-89884286D01*
X119082381Y-89789048D01*
X119082381Y-89550952D01*
X119130000Y-89455714D01*
X119177619Y-89408095D01*
X119272857Y-89360476D01*
X119368095Y-89360476D01*
X119510952Y-89408095D01*
X120082381Y-89979524D01*
X120082381Y-89360476D01*
X167167619Y-83915238D02*
X167120000Y-84010476D01*
X167024762Y-84105714D01*
X166881905Y-84248571D01*
X166834286Y-84343810D01*
X166834286Y-84439048D01*
X167072381Y-84391429D02*
X167024762Y-84486667D01*
X166929524Y-84581905D01*
X166739048Y-84629524D01*
X166405714Y-84629524D01*
X166215238Y-84581905D01*
X166120000Y-84486667D01*
X166072381Y-84391429D01*
X166072381Y-84200952D01*
X166120000Y-84105714D01*
X166215238Y-84010476D01*
X166405714Y-83962857D01*
X166739048Y-83962857D01*
X166929524Y-84010476D01*
X167024762Y-84105714D01*
X167072381Y-84200952D01*
X167072381Y-84391429D01*
X166072381Y-83629524D02*
X166072381Y-83010476D01*
X166453333Y-83343810D01*
X166453333Y-83200952D01*
X166500952Y-83105714D01*
X166548571Y-83058095D01*
X166643810Y-83010476D01*
X166881905Y-83010476D01*
X166977143Y-83058095D01*
X167024762Y-83105714D01*
X167072381Y-83200952D01*
X167072381Y-83486667D01*
X167024762Y-83581905D01*
X166977143Y-83629524D01*
X120177619Y-84550238D02*
X120130000Y-84645476D01*
X120034762Y-84740714D01*
X119891905Y-84883571D01*
X119844286Y-84978810D01*
X119844286Y-85074048D01*
X120082381Y-85026429D02*
X120034762Y-85121667D01*
X119939524Y-85216905D01*
X119749048Y-85264524D01*
X119415714Y-85264524D01*
X119225238Y-85216905D01*
X119130000Y-85121667D01*
X119082381Y-85026429D01*
X119082381Y-84835952D01*
X119130000Y-84740714D01*
X119225238Y-84645476D01*
X119415714Y-84597857D01*
X119749048Y-84597857D01*
X119939524Y-84645476D01*
X120034762Y-84740714D01*
X120082381Y-84835952D01*
X120082381Y-85026429D01*
X119415714Y-83740714D02*
X120082381Y-83740714D01*
X119034762Y-83978810D02*
X119749048Y-84216905D01*
X119749048Y-83597857D01*
X98242381Y-50966666D02*
X97766190Y-51300000D01*
X98242381Y-51538095D02*
X97242381Y-51538095D01*
X97242381Y-51157142D01*
X97290000Y-51061904D01*
X97337619Y-51014285D01*
X97432857Y-50966666D01*
X97575714Y-50966666D01*
X97670952Y-51014285D01*
X97718571Y-51061904D01*
X97766190Y-51157142D01*
X97766190Y-51538095D01*
X97242381Y-50633333D02*
X97242381Y-50014285D01*
X97623333Y-50347619D01*
X97623333Y-50204761D01*
X97670952Y-50109523D01*
X97718571Y-50061904D01*
X97813810Y-50014285D01*
X98051905Y-50014285D01*
X98147143Y-50061904D01*
X98194762Y-50109523D01*
X98242381Y-50204761D01*
X98242381Y-50490476D01*
X98194762Y-50585714D01*
X98147143Y-50633333D01*
X119832381Y-50966666D02*
X119356190Y-51300000D01*
X119832381Y-51538095D02*
X118832381Y-51538095D01*
X118832381Y-51157142D01*
X118880000Y-51061904D01*
X118927619Y-51014285D01*
X119022857Y-50966666D01*
X119165714Y-50966666D01*
X119260952Y-51014285D01*
X119308571Y-51061904D01*
X119356190Y-51157142D01*
X119356190Y-51538095D01*
X119165714Y-50109523D02*
X119832381Y-50109523D01*
X118784762Y-50347619D02*
X119499048Y-50585714D01*
X119499048Y-49966666D01*
X123642381Y-50966666D02*
X123166190Y-51300000D01*
X123642381Y-51538095D02*
X122642381Y-51538095D01*
X122642381Y-51157142D01*
X122690000Y-51061904D01*
X122737619Y-51014285D01*
X122832857Y-50966666D01*
X122975714Y-50966666D01*
X123070952Y-51014285D01*
X123118571Y-51061904D01*
X123166190Y-51157142D01*
X123166190Y-51538095D01*
X122642381Y-50061904D02*
X122642381Y-50538095D01*
X123118571Y-50585714D01*
X123070952Y-50538095D01*
X123023333Y-50442857D01*
X123023333Y-50204761D01*
X123070952Y-50109523D01*
X123118571Y-50061904D01*
X123213810Y-50014285D01*
X123451905Y-50014285D01*
X123547143Y-50061904D01*
X123594762Y-50109523D01*
X123642381Y-50204761D01*
X123642381Y-50442857D01*
X123594762Y-50538095D01*
X123547143Y-50585714D01*
X127452381Y-50966666D02*
X126976190Y-51300000D01*
X127452381Y-51538095D02*
X126452381Y-51538095D01*
X126452381Y-51157142D01*
X126500000Y-51061904D01*
X126547619Y-51014285D01*
X126642857Y-50966666D01*
X126785714Y-50966666D01*
X126880952Y-51014285D01*
X126928571Y-51061904D01*
X126976190Y-51157142D01*
X126976190Y-51538095D01*
X126452381Y-50109523D02*
X126452381Y-50300000D01*
X126500000Y-50395238D01*
X126547619Y-50442857D01*
X126690476Y-50538095D01*
X126880952Y-50585714D01*
X127261905Y-50585714D01*
X127357143Y-50538095D01*
X127404762Y-50490476D01*
X127452381Y-50395238D01*
X127452381Y-50204761D01*
X127404762Y-50109523D01*
X127357143Y-50061904D01*
X127261905Y-50014285D01*
X127023810Y-50014285D01*
X126928571Y-50061904D01*
X126880952Y-50109523D01*
X126833333Y-50204761D01*
X126833333Y-50395238D01*
X126880952Y-50490476D01*
X126928571Y-50538095D01*
X127023810Y-50585714D01*
X144597381Y-50966666D02*
X144121190Y-51300000D01*
X144597381Y-51538095D02*
X143597381Y-51538095D01*
X143597381Y-51157142D01*
X143645000Y-51061904D01*
X143692619Y-51014285D01*
X143787857Y-50966666D01*
X143930714Y-50966666D01*
X144025952Y-51014285D01*
X144073571Y-51061904D01*
X144121190Y-51157142D01*
X144121190Y-51538095D01*
X143597381Y-50633333D02*
X143597381Y-49966666D01*
X144597381Y-50395238D01*
X166822381Y-50966666D02*
X166346190Y-51300000D01*
X166822381Y-51538095D02*
X165822381Y-51538095D01*
X165822381Y-51157142D01*
X165870000Y-51061904D01*
X165917619Y-51014285D01*
X166012857Y-50966666D01*
X166155714Y-50966666D01*
X166250952Y-51014285D01*
X166298571Y-51061904D01*
X166346190Y-51157142D01*
X166346190Y-51538095D01*
X166250952Y-50395238D02*
X166203333Y-50490476D01*
X166155714Y-50538095D01*
X166060476Y-50585714D01*
X166012857Y-50585714D01*
X165917619Y-50538095D01*
X165870000Y-50490476D01*
X165822381Y-50395238D01*
X165822381Y-50204761D01*
X165870000Y-50109523D01*
X165917619Y-50061904D01*
X166012857Y-50014285D01*
X166060476Y-50014285D01*
X166155714Y-50061904D01*
X166203333Y-50109523D01*
X166250952Y-50204761D01*
X166250952Y-50395238D01*
X166298571Y-50490476D01*
X166346190Y-50538095D01*
X166441429Y-50585714D01*
X166631905Y-50585714D01*
X166727143Y-50538095D01*
X166774762Y-50490476D01*
X166822381Y-50395238D01*
X166822381Y-50204761D01*
X166774762Y-50109523D01*
X166727143Y-50061904D01*
X166631905Y-50014285D01*
X166441429Y-50014285D01*
X166346190Y-50061904D01*
X166298571Y-50109523D01*
X166250952Y-50204761D01*
X170632381Y-50966666D02*
X170156190Y-51300000D01*
X170632381Y-51538095D02*
X169632381Y-51538095D01*
X169632381Y-51157142D01*
X169680000Y-51061904D01*
X169727619Y-51014285D01*
X169822857Y-50966666D01*
X169965714Y-50966666D01*
X170060952Y-51014285D01*
X170108571Y-51061904D01*
X170156190Y-51157142D01*
X170156190Y-51538095D01*
X170632381Y-50490476D02*
X170632381Y-50300000D01*
X170584762Y-50204761D01*
X170537143Y-50157142D01*
X170394286Y-50061904D01*
X170203810Y-50014285D01*
X169822857Y-50014285D01*
X169727619Y-50061904D01*
X169680000Y-50109523D01*
X169632381Y-50204761D01*
X169632381Y-50395238D01*
X169680000Y-50490476D01*
X169727619Y-50538095D01*
X169822857Y-50585714D01*
X170060952Y-50585714D01*
X170156190Y-50538095D01*
X170203810Y-50490476D01*
X170251429Y-50395238D01*
X170251429Y-50204761D01*
X170203810Y-50109523D01*
X170156190Y-50061904D01*
X170060952Y-50014285D01*
X174442381Y-51442857D02*
X173966190Y-51776191D01*
X174442381Y-52014286D02*
X173442381Y-52014286D01*
X173442381Y-51633333D01*
X173490000Y-51538095D01*
X173537619Y-51490476D01*
X173632857Y-51442857D01*
X173775714Y-51442857D01*
X173870952Y-51490476D01*
X173918571Y-51538095D01*
X173966190Y-51633333D01*
X173966190Y-52014286D01*
X174442381Y-50490476D02*
X174442381Y-51061905D01*
X174442381Y-50776191D02*
X173442381Y-50776191D01*
X173585238Y-50871429D01*
X173680476Y-50966667D01*
X173728095Y-51061905D01*
X173442381Y-49871429D02*
X173442381Y-49776190D01*
X173490000Y-49680952D01*
X173537619Y-49633333D01*
X173632857Y-49585714D01*
X173823333Y-49538095D01*
X174061429Y-49538095D01*
X174251905Y-49585714D01*
X174347143Y-49633333D01*
X174394762Y-49680952D01*
X174442381Y-49776190D01*
X174442381Y-49871429D01*
X174394762Y-49966667D01*
X174347143Y-50014286D01*
X174251905Y-50061905D01*
X174061429Y-50109524D01*
X173823333Y-50109524D01*
X173632857Y-50061905D01*
X173537619Y-50014286D01*
X173490000Y-49966667D01*
X173442381Y-49871429D01*
X192222381Y-51442857D02*
X191746190Y-51776191D01*
X192222381Y-52014286D02*
X191222381Y-52014286D01*
X191222381Y-51633333D01*
X191270000Y-51538095D01*
X191317619Y-51490476D01*
X191412857Y-51442857D01*
X191555714Y-51442857D01*
X191650952Y-51490476D01*
X191698571Y-51538095D01*
X191746190Y-51633333D01*
X191746190Y-52014286D01*
X192222381Y-50490476D02*
X192222381Y-51061905D01*
X192222381Y-50776191D02*
X191222381Y-50776191D01*
X191365238Y-50871429D01*
X191460476Y-50966667D01*
X191508095Y-51061905D01*
X192222381Y-49538095D02*
X192222381Y-50109524D01*
X192222381Y-49823810D02*
X191222381Y-49823810D01*
X191365238Y-49919048D01*
X191460476Y-50014286D01*
X191508095Y-50109524D01*
X211907381Y-51442857D02*
X211431190Y-51776191D01*
X211907381Y-52014286D02*
X210907381Y-52014286D01*
X210907381Y-51633333D01*
X210955000Y-51538095D01*
X211002619Y-51490476D01*
X211097857Y-51442857D01*
X211240714Y-51442857D01*
X211335952Y-51490476D01*
X211383571Y-51538095D01*
X211431190Y-51633333D01*
X211431190Y-52014286D01*
X211907381Y-50490476D02*
X211907381Y-51061905D01*
X211907381Y-50776191D02*
X210907381Y-50776191D01*
X211050238Y-50871429D01*
X211145476Y-50966667D01*
X211193095Y-51061905D01*
X211002619Y-50109524D02*
X210955000Y-50061905D01*
X210907381Y-49966667D01*
X210907381Y-49728571D01*
X210955000Y-49633333D01*
X211002619Y-49585714D01*
X211097857Y-49538095D01*
X211193095Y-49538095D01*
X211335952Y-49585714D01*
X211907381Y-50157143D01*
X211907381Y-49538095D01*
X79943095Y-130627381D02*
X79943095Y-131436905D01*
X79990714Y-131532143D01*
X80038333Y-131579762D01*
X80133571Y-131627381D01*
X80324048Y-131627381D01*
X80419286Y-131579762D01*
X80466905Y-131532143D01*
X80514524Y-131436905D01*
X80514524Y-130627381D01*
X80895476Y-130627381D02*
X81514524Y-130627381D01*
X81181190Y-131008333D01*
X81324048Y-131008333D01*
X81419286Y-131055952D01*
X81466905Y-131103571D01*
X81514524Y-131198810D01*
X81514524Y-131436905D01*
X81466905Y-131532143D01*
X81419286Y-131579762D01*
X81324048Y-131627381D01*
X81038333Y-131627381D01*
X80943095Y-131579762D01*
X80895476Y-131532143D01*
X109251905Y-107192381D02*
X109251905Y-108001905D01*
X109299524Y-108097143D01*
X109347143Y-108144762D01*
X109442381Y-108192381D01*
X109632858Y-108192381D01*
X109728096Y-108144762D01*
X109775715Y-108097143D01*
X109823334Y-108001905D01*
X109823334Y-107192381D01*
X110823334Y-108192381D02*
X110251905Y-108192381D01*
X110537619Y-108192381D02*
X110537619Y-107192381D01*
X110442381Y-107335238D01*
X110347143Y-107430476D01*
X110251905Y-107478095D01*
X111442381Y-107192381D02*
X111537620Y-107192381D01*
X111632858Y-107240000D01*
X111680477Y-107287619D01*
X111728096Y-107382857D01*
X111775715Y-107573333D01*
X111775715Y-107811429D01*
X111728096Y-108001905D01*
X111680477Y-108097143D01*
X111632858Y-108144762D01*
X111537620Y-108192381D01*
X111442381Y-108192381D01*
X111347143Y-108144762D01*
X111299524Y-108097143D01*
X111251905Y-108001905D01*
X111204286Y-107811429D01*
X111204286Y-107573333D01*
X111251905Y-107382857D01*
X111299524Y-107287619D01*
X111347143Y-107240000D01*
X111442381Y-107192381D01*
X134651905Y-107192381D02*
X134651905Y-108001905D01*
X134699524Y-108097143D01*
X134747143Y-108144762D01*
X134842381Y-108192381D01*
X135032858Y-108192381D01*
X135128096Y-108144762D01*
X135175715Y-108097143D01*
X135223334Y-108001905D01*
X135223334Y-107192381D01*
X136223334Y-108192381D02*
X135651905Y-108192381D01*
X135937619Y-108192381D02*
X135937619Y-107192381D01*
X135842381Y-107335238D01*
X135747143Y-107430476D01*
X135651905Y-107478095D01*
X137175715Y-108192381D02*
X136604286Y-108192381D01*
X136890000Y-108192381D02*
X136890000Y-107192381D01*
X136794762Y-107335238D01*
X136699524Y-107430476D01*
X136604286Y-107478095D01*
X156241905Y-107192381D02*
X156241905Y-108001905D01*
X156289524Y-108097143D01*
X156337143Y-108144762D01*
X156432381Y-108192381D01*
X156622858Y-108192381D01*
X156718096Y-108144762D01*
X156765715Y-108097143D01*
X156813334Y-108001905D01*
X156813334Y-107192381D01*
X157813334Y-108192381D02*
X157241905Y-108192381D01*
X157527619Y-108192381D02*
X157527619Y-107192381D01*
X157432381Y-107335238D01*
X157337143Y-107430476D01*
X157241905Y-107478095D01*
X158194286Y-107287619D02*
X158241905Y-107240000D01*
X158337143Y-107192381D01*
X158575239Y-107192381D01*
X158670477Y-107240000D01*
X158718096Y-107287619D01*
X158765715Y-107382857D01*
X158765715Y-107478095D01*
X158718096Y-107620952D01*
X158146667Y-108192381D01*
X158765715Y-108192381D01*
X181641905Y-107192381D02*
X181641905Y-108001905D01*
X181689524Y-108097143D01*
X181737143Y-108144762D01*
X181832381Y-108192381D01*
X182022858Y-108192381D01*
X182118096Y-108144762D01*
X182165715Y-108097143D01*
X182213334Y-108001905D01*
X182213334Y-107192381D01*
X183213334Y-108192381D02*
X182641905Y-108192381D01*
X182927619Y-108192381D02*
X182927619Y-107192381D01*
X182832381Y-107335238D01*
X182737143Y-107430476D01*
X182641905Y-107478095D01*
X183546667Y-107192381D02*
X184165715Y-107192381D01*
X183832381Y-107573333D01*
X183975239Y-107573333D01*
X184070477Y-107620952D01*
X184118096Y-107668571D01*
X184165715Y-107763810D01*
X184165715Y-108001905D01*
X184118096Y-108097143D01*
X184070477Y-108144762D01*
X183975239Y-108192381D01*
X183689524Y-108192381D01*
X183594286Y-108144762D01*
X183546667Y-108097143D01*
X203231905Y-107192381D02*
X203231905Y-108001905D01*
X203279524Y-108097143D01*
X203327143Y-108144762D01*
X203422381Y-108192381D01*
X203612858Y-108192381D01*
X203708096Y-108144762D01*
X203755715Y-108097143D01*
X203803334Y-108001905D01*
X203803334Y-107192381D01*
X204803334Y-108192381D02*
X204231905Y-108192381D01*
X204517619Y-108192381D02*
X204517619Y-107192381D01*
X204422381Y-107335238D01*
X204327143Y-107430476D01*
X204231905Y-107478095D01*
X205660477Y-107525714D02*
X205660477Y-108192381D01*
X205422381Y-107144762D02*
X205184286Y-107859048D01*
X205803334Y-107859048D01*
D17*
X87917262Y-54552548D02*
X87917262Y-53346048D01*
X88606690Y-54552548D01*
X88606690Y-53346048D01*
X89813190Y-54552548D02*
X89123762Y-54552548D01*
X89468476Y-54552548D02*
X89468476Y-53346048D01*
X89353571Y-53518405D01*
X89238666Y-53633310D01*
X89123762Y-53690762D01*
D12*
X85053714Y-58474429D02*
X85053714Y-56950429D01*
X85779428Y-58474429D02*
X85779428Y-56950429D01*
X86650285Y-58474429D01*
X86650285Y-56950429D01*
X87375999Y-57893857D02*
X88537142Y-57893857D01*
X90061142Y-58474429D02*
X89190285Y-58474429D01*
X89625713Y-58474429D02*
X89625713Y-56950429D01*
X89480570Y-57168143D01*
X89335428Y-57313286D01*
X89190285Y-57385857D01*
X90641714Y-57095571D02*
X90714285Y-57023000D01*
X90859428Y-56950429D01*
X91222285Y-56950429D01*
X91367428Y-57023000D01*
X91439999Y-57095571D01*
X91512571Y-57240714D01*
X91512571Y-57385857D01*
X91439999Y-57603571D01*
X90569142Y-58474429D01*
X91512571Y-58474429D01*
X92093143Y-58039000D02*
X92818857Y-58039000D01*
X91948000Y-58474429D02*
X92456000Y-56950429D01*
X92964000Y-58474429D01*
D17*
X88319429Y-75510571D02*
X88491786Y-75568024D01*
X88549238Y-75625476D01*
X88606690Y-75740381D01*
X88606690Y-75912738D01*
X88549238Y-76027643D01*
X88491786Y-76085095D01*
X88376881Y-76142548D01*
X87917262Y-76142548D01*
X87917262Y-74936048D01*
X88319429Y-74936048D01*
X88434333Y-74993500D01*
X88491786Y-75050952D01*
X88549238Y-75165857D01*
X88549238Y-75280762D01*
X88491786Y-75395667D01*
X88434333Y-75453119D01*
X88319429Y-75510571D01*
X87917262Y-75510571D01*
X89296119Y-76142548D02*
X89181214Y-76085095D01*
X89123762Y-76027643D01*
X89066310Y-75912738D01*
X89066310Y-75568024D01*
X89123762Y-75453119D01*
X89181214Y-75395667D01*
X89296119Y-75338214D01*
X89468476Y-75338214D01*
X89583381Y-75395667D01*
X89640833Y-75453119D01*
X89698286Y-75568024D01*
X89698286Y-75912738D01*
X89640833Y-76027643D01*
X89583381Y-76085095D01*
X89468476Y-76142548D01*
X89296119Y-76142548D01*
X90043000Y-75338214D02*
X90502619Y-75338214D01*
X90215357Y-74936048D02*
X90215357Y-75970190D01*
X90272809Y-76085095D01*
X90387714Y-76142548D01*
X90502619Y-76142548D01*
X87744905Y-63506048D02*
X88434333Y-63506048D01*
X88089619Y-64712548D02*
X88089619Y-63506048D01*
X89008857Y-64712548D02*
X88893952Y-64655095D01*
X88836500Y-64597643D01*
X88779048Y-64482738D01*
X88779048Y-64138024D01*
X88836500Y-64023119D01*
X88893952Y-63965667D01*
X89008857Y-63908214D01*
X89181214Y-63908214D01*
X89296119Y-63965667D01*
X89353571Y-64023119D01*
X89411024Y-64138024D01*
X89411024Y-64482738D01*
X89353571Y-64597643D01*
X89296119Y-64655095D01*
X89181214Y-64712548D01*
X89008857Y-64712548D01*
X89928095Y-63908214D02*
X89928095Y-65114714D01*
X89928095Y-63965667D02*
X90043000Y-63908214D01*
X90272809Y-63908214D01*
X90387714Y-63965667D01*
X90445166Y-64023119D01*
X90502619Y-64138024D01*
X90502619Y-64482738D01*
X90445166Y-64597643D01*
X90387714Y-64655095D01*
X90272809Y-64712548D01*
X90043000Y-64712548D01*
X89928095Y-64655095D01*
X109507262Y-54552548D02*
X109507262Y-53346048D01*
X110196690Y-54552548D01*
X110196690Y-53346048D01*
X110713762Y-53460952D02*
X110771214Y-53403500D01*
X110886119Y-53346048D01*
X111173381Y-53346048D01*
X111288285Y-53403500D01*
X111345738Y-53460952D01*
X111403190Y-53575857D01*
X111403190Y-53690762D01*
X111345738Y-53863119D01*
X110656309Y-54552548D01*
X111403190Y-54552548D01*
D12*
X106643714Y-58474429D02*
X106643714Y-56950429D01*
X107369428Y-58474429D02*
X107369428Y-56950429D01*
X108240285Y-58474429D01*
X108240285Y-56950429D01*
X108965999Y-57893857D02*
X110127142Y-57893857D01*
X111651142Y-58474429D02*
X110780285Y-58474429D01*
X111215713Y-58474429D02*
X111215713Y-56950429D01*
X111070570Y-57168143D01*
X110925428Y-57313286D01*
X110780285Y-57385857D01*
X112231714Y-57095571D02*
X112304285Y-57023000D01*
X112449428Y-56950429D01*
X112812285Y-56950429D01*
X112957428Y-57023000D01*
X113029999Y-57095571D01*
X113102571Y-57240714D01*
X113102571Y-57385857D01*
X113029999Y-57603571D01*
X112159142Y-58474429D01*
X113102571Y-58474429D01*
X113683143Y-58039000D02*
X114408857Y-58039000D01*
X113538000Y-58474429D02*
X114046000Y-56950429D01*
X114554000Y-58474429D01*
D17*
X109909429Y-75510571D02*
X110081786Y-75568024D01*
X110139238Y-75625476D01*
X110196690Y-75740381D01*
X110196690Y-75912738D01*
X110139238Y-76027643D01*
X110081786Y-76085095D01*
X109966881Y-76142548D01*
X109507262Y-76142548D01*
X109507262Y-74936048D01*
X109909429Y-74936048D01*
X110024333Y-74993500D01*
X110081786Y-75050952D01*
X110139238Y-75165857D01*
X110139238Y-75280762D01*
X110081786Y-75395667D01*
X110024333Y-75453119D01*
X109909429Y-75510571D01*
X109507262Y-75510571D01*
X110886119Y-76142548D02*
X110771214Y-76085095D01*
X110713762Y-76027643D01*
X110656310Y-75912738D01*
X110656310Y-75568024D01*
X110713762Y-75453119D01*
X110771214Y-75395667D01*
X110886119Y-75338214D01*
X111058476Y-75338214D01*
X111173381Y-75395667D01*
X111230833Y-75453119D01*
X111288286Y-75568024D01*
X111288286Y-75912738D01*
X111230833Y-76027643D01*
X111173381Y-76085095D01*
X111058476Y-76142548D01*
X110886119Y-76142548D01*
X111633000Y-75338214D02*
X112092619Y-75338214D01*
X111805357Y-74936048D02*
X111805357Y-75970190D01*
X111862809Y-76085095D01*
X111977714Y-76142548D01*
X112092619Y-76142548D01*
X109334905Y-63506048D02*
X110024333Y-63506048D01*
X109679619Y-64712548D02*
X109679619Y-63506048D01*
X110598857Y-64712548D02*
X110483952Y-64655095D01*
X110426500Y-64597643D01*
X110369048Y-64482738D01*
X110369048Y-64138024D01*
X110426500Y-64023119D01*
X110483952Y-63965667D01*
X110598857Y-63908214D01*
X110771214Y-63908214D01*
X110886119Y-63965667D01*
X110943571Y-64023119D01*
X111001024Y-64138024D01*
X111001024Y-64482738D01*
X110943571Y-64597643D01*
X110886119Y-64655095D01*
X110771214Y-64712548D01*
X110598857Y-64712548D01*
X111518095Y-63908214D02*
X111518095Y-65114714D01*
X111518095Y-63965667D02*
X111633000Y-63908214D01*
X111862809Y-63908214D01*
X111977714Y-63965667D01*
X112035166Y-64023119D01*
X112092619Y-64138024D01*
X112092619Y-64482738D01*
X112035166Y-64597643D01*
X111977714Y-64655095D01*
X111862809Y-64712548D01*
X111633000Y-64712548D01*
X111518095Y-64655095D01*
X134907262Y-54552548D02*
X134907262Y-53346048D01*
X135596690Y-54552548D01*
X135596690Y-53346048D01*
X136056309Y-53346048D02*
X136803190Y-53346048D01*
X136401023Y-53805667D01*
X136573381Y-53805667D01*
X136688285Y-53863119D01*
X136745738Y-53920571D01*
X136803190Y-54035476D01*
X136803190Y-54322738D01*
X136745738Y-54437643D01*
X136688285Y-54495095D01*
X136573381Y-54552548D01*
X136228666Y-54552548D01*
X136113762Y-54495095D01*
X136056309Y-54437643D01*
D12*
X132043714Y-58474429D02*
X132043714Y-56950429D01*
X132769428Y-58474429D02*
X132769428Y-56950429D01*
X133640285Y-58474429D01*
X133640285Y-56950429D01*
X134365999Y-57893857D02*
X135527142Y-57893857D01*
X137051142Y-58474429D02*
X136180285Y-58474429D01*
X136615713Y-58474429D02*
X136615713Y-56950429D01*
X136470570Y-57168143D01*
X136325428Y-57313286D01*
X136180285Y-57385857D01*
X137631714Y-57095571D02*
X137704285Y-57023000D01*
X137849428Y-56950429D01*
X138212285Y-56950429D01*
X138357428Y-57023000D01*
X138429999Y-57095571D01*
X138502571Y-57240714D01*
X138502571Y-57385857D01*
X138429999Y-57603571D01*
X137559142Y-58474429D01*
X138502571Y-58474429D01*
X139083143Y-58039000D02*
X139808857Y-58039000D01*
X138938000Y-58474429D02*
X139446000Y-56950429D01*
X139954000Y-58474429D01*
D17*
X135309429Y-75510571D02*
X135481786Y-75568024D01*
X135539238Y-75625476D01*
X135596690Y-75740381D01*
X135596690Y-75912738D01*
X135539238Y-76027643D01*
X135481786Y-76085095D01*
X135366881Y-76142548D01*
X134907262Y-76142548D01*
X134907262Y-74936048D01*
X135309429Y-74936048D01*
X135424333Y-74993500D01*
X135481786Y-75050952D01*
X135539238Y-75165857D01*
X135539238Y-75280762D01*
X135481786Y-75395667D01*
X135424333Y-75453119D01*
X135309429Y-75510571D01*
X134907262Y-75510571D01*
X136286119Y-76142548D02*
X136171214Y-76085095D01*
X136113762Y-76027643D01*
X136056310Y-75912738D01*
X136056310Y-75568024D01*
X136113762Y-75453119D01*
X136171214Y-75395667D01*
X136286119Y-75338214D01*
X136458476Y-75338214D01*
X136573381Y-75395667D01*
X136630833Y-75453119D01*
X136688286Y-75568024D01*
X136688286Y-75912738D01*
X136630833Y-76027643D01*
X136573381Y-76085095D01*
X136458476Y-76142548D01*
X136286119Y-76142548D01*
X137033000Y-75338214D02*
X137492619Y-75338214D01*
X137205357Y-74936048D02*
X137205357Y-75970190D01*
X137262809Y-76085095D01*
X137377714Y-76142548D01*
X137492619Y-76142548D01*
X134734905Y-63506048D02*
X135424333Y-63506048D01*
X135079619Y-64712548D02*
X135079619Y-63506048D01*
X135998857Y-64712548D02*
X135883952Y-64655095D01*
X135826500Y-64597643D01*
X135769048Y-64482738D01*
X135769048Y-64138024D01*
X135826500Y-64023119D01*
X135883952Y-63965667D01*
X135998857Y-63908214D01*
X136171214Y-63908214D01*
X136286119Y-63965667D01*
X136343571Y-64023119D01*
X136401024Y-64138024D01*
X136401024Y-64482738D01*
X136343571Y-64597643D01*
X136286119Y-64655095D01*
X136171214Y-64712548D01*
X135998857Y-64712548D01*
X136918095Y-63908214D02*
X136918095Y-65114714D01*
X136918095Y-63965667D02*
X137033000Y-63908214D01*
X137262809Y-63908214D01*
X137377714Y-63965667D01*
X137435166Y-64023119D01*
X137492619Y-64138024D01*
X137492619Y-64482738D01*
X137435166Y-64597643D01*
X137377714Y-64655095D01*
X137262809Y-64712548D01*
X137033000Y-64712548D01*
X136918095Y-64655095D01*
X156497262Y-54552548D02*
X156497262Y-53346048D01*
X157186690Y-54552548D01*
X157186690Y-53346048D01*
X158278285Y-53748214D02*
X158278285Y-54552548D01*
X157991023Y-53288595D02*
X157703762Y-54150381D01*
X158450642Y-54150381D01*
D12*
X153633714Y-58474429D02*
X153633714Y-56950429D01*
X154359428Y-58474429D02*
X154359428Y-56950429D01*
X155230285Y-58474429D01*
X155230285Y-56950429D01*
X155955999Y-57893857D02*
X157117142Y-57893857D01*
X158641142Y-58474429D02*
X157770285Y-58474429D01*
X158205713Y-58474429D02*
X158205713Y-56950429D01*
X158060570Y-57168143D01*
X157915428Y-57313286D01*
X157770285Y-57385857D01*
X159221714Y-57095571D02*
X159294285Y-57023000D01*
X159439428Y-56950429D01*
X159802285Y-56950429D01*
X159947428Y-57023000D01*
X160019999Y-57095571D01*
X160092571Y-57240714D01*
X160092571Y-57385857D01*
X160019999Y-57603571D01*
X159149142Y-58474429D01*
X160092571Y-58474429D01*
X160673143Y-58039000D02*
X161398857Y-58039000D01*
X160528000Y-58474429D02*
X161036000Y-56950429D01*
X161544000Y-58474429D01*
D17*
X156899429Y-75510571D02*
X157071786Y-75568024D01*
X157129238Y-75625476D01*
X157186690Y-75740381D01*
X157186690Y-75912738D01*
X157129238Y-76027643D01*
X157071786Y-76085095D01*
X156956881Y-76142548D01*
X156497262Y-76142548D01*
X156497262Y-74936048D01*
X156899429Y-74936048D01*
X157014333Y-74993500D01*
X157071786Y-75050952D01*
X157129238Y-75165857D01*
X157129238Y-75280762D01*
X157071786Y-75395667D01*
X157014333Y-75453119D01*
X156899429Y-75510571D01*
X156497262Y-75510571D01*
X157876119Y-76142548D02*
X157761214Y-76085095D01*
X157703762Y-76027643D01*
X157646310Y-75912738D01*
X157646310Y-75568024D01*
X157703762Y-75453119D01*
X157761214Y-75395667D01*
X157876119Y-75338214D01*
X158048476Y-75338214D01*
X158163381Y-75395667D01*
X158220833Y-75453119D01*
X158278286Y-75568024D01*
X158278286Y-75912738D01*
X158220833Y-76027643D01*
X158163381Y-76085095D01*
X158048476Y-76142548D01*
X157876119Y-76142548D01*
X158623000Y-75338214D02*
X159082619Y-75338214D01*
X158795357Y-74936048D02*
X158795357Y-75970190D01*
X158852809Y-76085095D01*
X158967714Y-76142548D01*
X159082619Y-76142548D01*
X156324905Y-63506048D02*
X157014333Y-63506048D01*
X156669619Y-64712548D02*
X156669619Y-63506048D01*
X157588857Y-64712548D02*
X157473952Y-64655095D01*
X157416500Y-64597643D01*
X157359048Y-64482738D01*
X157359048Y-64138024D01*
X157416500Y-64023119D01*
X157473952Y-63965667D01*
X157588857Y-63908214D01*
X157761214Y-63908214D01*
X157876119Y-63965667D01*
X157933571Y-64023119D01*
X157991024Y-64138024D01*
X157991024Y-64482738D01*
X157933571Y-64597643D01*
X157876119Y-64655095D01*
X157761214Y-64712548D01*
X157588857Y-64712548D01*
X158508095Y-63908214D02*
X158508095Y-65114714D01*
X158508095Y-63965667D02*
X158623000Y-63908214D01*
X158852809Y-63908214D01*
X158967714Y-63965667D01*
X159025166Y-64023119D01*
X159082619Y-64138024D01*
X159082619Y-64482738D01*
X159025166Y-64597643D01*
X158967714Y-64655095D01*
X158852809Y-64712548D01*
X158623000Y-64712548D01*
X158508095Y-64655095D01*
X181897262Y-54552548D02*
X181897262Y-53346048D01*
X182586690Y-54552548D01*
X182586690Y-53346048D01*
X183735738Y-53346048D02*
X183161214Y-53346048D01*
X183103762Y-53920571D01*
X183161214Y-53863119D01*
X183276119Y-53805667D01*
X183563381Y-53805667D01*
X183678285Y-53863119D01*
X183735738Y-53920571D01*
X183793190Y-54035476D01*
X183793190Y-54322738D01*
X183735738Y-54437643D01*
X183678285Y-54495095D01*
X183563381Y-54552548D01*
X183276119Y-54552548D01*
X183161214Y-54495095D01*
X183103762Y-54437643D01*
D12*
X179033714Y-58474429D02*
X179033714Y-56950429D01*
X179759428Y-58474429D02*
X179759428Y-56950429D01*
X180630285Y-58474429D01*
X180630285Y-56950429D01*
X181355999Y-57893857D02*
X182517142Y-57893857D01*
X184041142Y-58474429D02*
X183170285Y-58474429D01*
X183605713Y-58474429D02*
X183605713Y-56950429D01*
X183460570Y-57168143D01*
X183315428Y-57313286D01*
X183170285Y-57385857D01*
X184621714Y-57095571D02*
X184694285Y-57023000D01*
X184839428Y-56950429D01*
X185202285Y-56950429D01*
X185347428Y-57023000D01*
X185419999Y-57095571D01*
X185492571Y-57240714D01*
X185492571Y-57385857D01*
X185419999Y-57603571D01*
X184549142Y-58474429D01*
X185492571Y-58474429D01*
X186073143Y-58039000D02*
X186798857Y-58039000D01*
X185928000Y-58474429D02*
X186436000Y-56950429D01*
X186944000Y-58474429D01*
D17*
X182299429Y-75510571D02*
X182471786Y-75568024D01*
X182529238Y-75625476D01*
X182586690Y-75740381D01*
X182586690Y-75912738D01*
X182529238Y-76027643D01*
X182471786Y-76085095D01*
X182356881Y-76142548D01*
X181897262Y-76142548D01*
X181897262Y-74936048D01*
X182299429Y-74936048D01*
X182414333Y-74993500D01*
X182471786Y-75050952D01*
X182529238Y-75165857D01*
X182529238Y-75280762D01*
X182471786Y-75395667D01*
X182414333Y-75453119D01*
X182299429Y-75510571D01*
X181897262Y-75510571D01*
X183276119Y-76142548D02*
X183161214Y-76085095D01*
X183103762Y-76027643D01*
X183046310Y-75912738D01*
X183046310Y-75568024D01*
X183103762Y-75453119D01*
X183161214Y-75395667D01*
X183276119Y-75338214D01*
X183448476Y-75338214D01*
X183563381Y-75395667D01*
X183620833Y-75453119D01*
X183678286Y-75568024D01*
X183678286Y-75912738D01*
X183620833Y-76027643D01*
X183563381Y-76085095D01*
X183448476Y-76142548D01*
X183276119Y-76142548D01*
X184023000Y-75338214D02*
X184482619Y-75338214D01*
X184195357Y-74936048D02*
X184195357Y-75970190D01*
X184252809Y-76085095D01*
X184367714Y-76142548D01*
X184482619Y-76142548D01*
X181724905Y-63506048D02*
X182414333Y-63506048D01*
X182069619Y-64712548D02*
X182069619Y-63506048D01*
X182988857Y-64712548D02*
X182873952Y-64655095D01*
X182816500Y-64597643D01*
X182759048Y-64482738D01*
X182759048Y-64138024D01*
X182816500Y-64023119D01*
X182873952Y-63965667D01*
X182988857Y-63908214D01*
X183161214Y-63908214D01*
X183276119Y-63965667D01*
X183333571Y-64023119D01*
X183391024Y-64138024D01*
X183391024Y-64482738D01*
X183333571Y-64597643D01*
X183276119Y-64655095D01*
X183161214Y-64712548D01*
X182988857Y-64712548D01*
X183908095Y-63908214D02*
X183908095Y-65114714D01*
X183908095Y-63965667D02*
X184023000Y-63908214D01*
X184252809Y-63908214D01*
X184367714Y-63965667D01*
X184425166Y-64023119D01*
X184482619Y-64138024D01*
X184482619Y-64482738D01*
X184425166Y-64597643D01*
X184367714Y-64655095D01*
X184252809Y-64712548D01*
X184023000Y-64712548D01*
X183908095Y-64655095D01*
X203487262Y-54552548D02*
X203487262Y-53346048D01*
X204176690Y-54552548D01*
X204176690Y-53346048D01*
X205268285Y-53346048D02*
X205038476Y-53346048D01*
X204923571Y-53403500D01*
X204866119Y-53460952D01*
X204751214Y-53633310D01*
X204693762Y-53863119D01*
X204693762Y-54322738D01*
X204751214Y-54437643D01*
X204808666Y-54495095D01*
X204923571Y-54552548D01*
X205153381Y-54552548D01*
X205268285Y-54495095D01*
X205325738Y-54437643D01*
X205383190Y-54322738D01*
X205383190Y-54035476D01*
X205325738Y-53920571D01*
X205268285Y-53863119D01*
X205153381Y-53805667D01*
X204923571Y-53805667D01*
X204808666Y-53863119D01*
X204751214Y-53920571D01*
X204693762Y-54035476D01*
D12*
X200623714Y-58474429D02*
X200623714Y-56950429D01*
X201349428Y-58474429D02*
X201349428Y-56950429D01*
X202220285Y-58474429D01*
X202220285Y-56950429D01*
X202945999Y-57893857D02*
X204107142Y-57893857D01*
X205631142Y-58474429D02*
X204760285Y-58474429D01*
X205195713Y-58474429D02*
X205195713Y-56950429D01*
X205050570Y-57168143D01*
X204905428Y-57313286D01*
X204760285Y-57385857D01*
X206211714Y-57095571D02*
X206284285Y-57023000D01*
X206429428Y-56950429D01*
X206792285Y-56950429D01*
X206937428Y-57023000D01*
X207009999Y-57095571D01*
X207082571Y-57240714D01*
X207082571Y-57385857D01*
X207009999Y-57603571D01*
X206139142Y-58474429D01*
X207082571Y-58474429D01*
X207663143Y-58039000D02*
X208388857Y-58039000D01*
X207518000Y-58474429D02*
X208026000Y-56950429D01*
X208534000Y-58474429D01*
D17*
X203889429Y-75510571D02*
X204061786Y-75568024D01*
X204119238Y-75625476D01*
X204176690Y-75740381D01*
X204176690Y-75912738D01*
X204119238Y-76027643D01*
X204061786Y-76085095D01*
X203946881Y-76142548D01*
X203487262Y-76142548D01*
X203487262Y-74936048D01*
X203889429Y-74936048D01*
X204004333Y-74993500D01*
X204061786Y-75050952D01*
X204119238Y-75165857D01*
X204119238Y-75280762D01*
X204061786Y-75395667D01*
X204004333Y-75453119D01*
X203889429Y-75510571D01*
X203487262Y-75510571D01*
X204866119Y-76142548D02*
X204751214Y-76085095D01*
X204693762Y-76027643D01*
X204636310Y-75912738D01*
X204636310Y-75568024D01*
X204693762Y-75453119D01*
X204751214Y-75395667D01*
X204866119Y-75338214D01*
X205038476Y-75338214D01*
X205153381Y-75395667D01*
X205210833Y-75453119D01*
X205268286Y-75568024D01*
X205268286Y-75912738D01*
X205210833Y-76027643D01*
X205153381Y-76085095D01*
X205038476Y-76142548D01*
X204866119Y-76142548D01*
X205613000Y-75338214D02*
X206072619Y-75338214D01*
X205785357Y-74936048D02*
X205785357Y-75970190D01*
X205842809Y-76085095D01*
X205957714Y-76142548D01*
X206072619Y-76142548D01*
X203314905Y-63506048D02*
X204004333Y-63506048D01*
X203659619Y-64712548D02*
X203659619Y-63506048D01*
X204578857Y-64712548D02*
X204463952Y-64655095D01*
X204406500Y-64597643D01*
X204349048Y-64482738D01*
X204349048Y-64138024D01*
X204406500Y-64023119D01*
X204463952Y-63965667D01*
X204578857Y-63908214D01*
X204751214Y-63908214D01*
X204866119Y-63965667D01*
X204923571Y-64023119D01*
X204981024Y-64138024D01*
X204981024Y-64482738D01*
X204923571Y-64597643D01*
X204866119Y-64655095D01*
X204751214Y-64712548D01*
X204578857Y-64712548D01*
X205498095Y-63908214D02*
X205498095Y-65114714D01*
X205498095Y-63965667D02*
X205613000Y-63908214D01*
X205842809Y-63908214D01*
X205957714Y-63965667D01*
X206015166Y-64023119D01*
X206072619Y-64138024D01*
X206072619Y-64482738D01*
X206015166Y-64597643D01*
X205957714Y-64655095D01*
X205842809Y-64712548D01*
X205613000Y-64712548D01*
X205498095Y-64655095D01*
D18*
X169001924Y-71101615D02*
X169001924Y-70715535D01*
X169222541Y-71101615D01*
X169222541Y-70715535D01*
X169406389Y-70899383D02*
X169535082Y-70899383D01*
X169590236Y-71101615D02*
X169406389Y-71101615D01*
X169406389Y-70715535D01*
X169590236Y-70715535D01*
X169921162Y-70844229D02*
X169921162Y-71101615D01*
X169829238Y-70697150D02*
X169737314Y-70972922D01*
X169976316Y-70972922D01*
X168366924Y-63481615D02*
X168366924Y-63095535D01*
X168587541Y-63481615D01*
X168587541Y-63095535D01*
X168771389Y-63279383D02*
X168900082Y-63279383D01*
X168955236Y-63481615D02*
X168771389Y-63481615D01*
X168771389Y-63095535D01*
X168955236Y-63095535D01*
X169083929Y-63095535D02*
X169322931Y-63095535D01*
X169194238Y-63242613D01*
X169249392Y-63242613D01*
X169286162Y-63260998D01*
X169304546Y-63279383D01*
X169322931Y-63316152D01*
X169322931Y-63408076D01*
X169304546Y-63444846D01*
X169286162Y-63463230D01*
X169249392Y-63481615D01*
X169139084Y-63481615D01*
X169102314Y-63463230D01*
X169083929Y-63444846D01*
X122011924Y-70466615D02*
X122011924Y-70080535D01*
X122232541Y-70466615D01*
X122232541Y-70080535D01*
X122416389Y-70264383D02*
X122545082Y-70264383D01*
X122600236Y-70466615D02*
X122416389Y-70466615D01*
X122416389Y-70080535D01*
X122600236Y-70080535D01*
X122747314Y-70117305D02*
X122765699Y-70098920D01*
X122802468Y-70080535D01*
X122894392Y-70080535D01*
X122931162Y-70098920D01*
X122949546Y-70117305D01*
X122967931Y-70154074D01*
X122967931Y-70190844D01*
X122949546Y-70245998D01*
X122728929Y-70466615D01*
X122967931Y-70466615D01*
X121376924Y-63481615D02*
X121376924Y-63095535D01*
X121597541Y-63481615D01*
X121597541Y-63095535D01*
X121781389Y-63279383D02*
X121910082Y-63279383D01*
X121965236Y-63481615D02*
X121781389Y-63481615D01*
X121781389Y-63095535D01*
X121965236Y-63095535D01*
X122332931Y-63481615D02*
X122112314Y-63481615D01*
X122222623Y-63481615D02*
X122222623Y-63095535D01*
X122185853Y-63150690D01*
X122149084Y-63187459D01*
X122112314Y-63205844D01*
D12*
X181487381Y-123316905D02*
X182296905Y-123316905D01*
X182392143Y-123269286D01*
X182439762Y-123221667D01*
X182487381Y-123126429D01*
X182487381Y-122935952D01*
X182439762Y-122840714D01*
X182392143Y-122793095D01*
X182296905Y-122745476D01*
X181487381Y-122745476D01*
X181820714Y-121840714D02*
X182487381Y-121840714D01*
X181439762Y-122078810D02*
X182154048Y-122316905D01*
X182154048Y-121697857D01*
X111637381Y-123316905D02*
X112446905Y-123316905D01*
X112542143Y-123269286D01*
X112589762Y-123221667D01*
X112637381Y-123126429D01*
X112637381Y-122935952D01*
X112589762Y-122840714D01*
X112542143Y-122793095D01*
X112446905Y-122745476D01*
X111637381Y-122745476D01*
X111637381Y-121793095D02*
X111637381Y-122269286D01*
X112113571Y-122316905D01*
X112065952Y-122269286D01*
X112018333Y-122174048D01*
X112018333Y-121935952D01*
X112065952Y-121840714D01*
X112113571Y-121793095D01*
X112208810Y-121745476D01*
X112446905Y-121745476D01*
X112542143Y-121793095D01*
X112589762Y-121840714D01*
X112637381Y-121935952D01*
X112637381Y-122174048D01*
X112589762Y-122269286D01*
X112542143Y-122316905D01*
X157992381Y-123316905D02*
X158801905Y-123316905D01*
X158897143Y-123269286D01*
X158944762Y-123221667D01*
X158992381Y-123126429D01*
X158992381Y-122935952D01*
X158944762Y-122840714D01*
X158897143Y-122793095D01*
X158801905Y-122745476D01*
X157992381Y-122745476D01*
X157992381Y-121840714D02*
X157992381Y-122031191D01*
X158040000Y-122126429D01*
X158087619Y-122174048D01*
X158230476Y-122269286D01*
X158420952Y-122316905D01*
X158801905Y-122316905D01*
X158897143Y-122269286D01*
X158944762Y-122221667D01*
X158992381Y-122126429D01*
X158992381Y-121935952D01*
X158944762Y-121840714D01*
X158897143Y-121793095D01*
X158801905Y-121745476D01*
X158563810Y-121745476D01*
X158468571Y-121793095D01*
X158420952Y-121840714D01*
X158373333Y-121935952D01*
X158373333Y-122126429D01*
X158420952Y-122221667D01*
X158468571Y-122269286D01*
X158563810Y-122316905D01*
X204982381Y-123316905D02*
X205791905Y-123316905D01*
X205887143Y-123269286D01*
X205934762Y-123221667D01*
X205982381Y-123126429D01*
X205982381Y-122935952D01*
X205934762Y-122840714D01*
X205887143Y-122793095D01*
X205791905Y-122745476D01*
X204982381Y-122745476D01*
X204982381Y-122364524D02*
X204982381Y-121697857D01*
X205982381Y-122126429D01*
X219797381Y-101933333D02*
X220511667Y-101933333D01*
X220654524Y-101980953D01*
X220749762Y-102076191D01*
X220797381Y-102219048D01*
X220797381Y-102314286D01*
X220130714Y-101028571D02*
X220797381Y-101028571D01*
X219749762Y-101266667D02*
X220464048Y-101504762D01*
X220464048Y-100885714D01*
X196683334Y-136882143D02*
X196635715Y-136929762D01*
X196492858Y-136977381D01*
X196397620Y-136977381D01*
X196254762Y-136929762D01*
X196159524Y-136834524D01*
X196111905Y-136739286D01*
X196064286Y-136548810D01*
X196064286Y-136405952D01*
X196111905Y-136215476D01*
X196159524Y-136120238D01*
X196254762Y-136025000D01*
X196397620Y-135977381D01*
X196492858Y-135977381D01*
X196635715Y-136025000D01*
X196683334Y-136072619D01*
X197064286Y-136072619D02*
X197111905Y-136025000D01*
X197207143Y-135977381D01*
X197445239Y-135977381D01*
X197540477Y-136025000D01*
X197588096Y-136072619D01*
X197635715Y-136167857D01*
X197635715Y-136263095D01*
X197588096Y-136405952D01*
X197016667Y-136977381D01*
X197635715Y-136977381D01*
X218301667Y-113717381D02*
X218301667Y-114431667D01*
X218254047Y-114574524D01*
X218158809Y-114669762D01*
X218015952Y-114717381D01*
X217920714Y-114717381D01*
X219301667Y-114717381D02*
X218730238Y-114717381D01*
X219015952Y-114717381D02*
X219015952Y-113717381D01*
X218920714Y-113860238D01*
X218825476Y-113955476D01*
X218730238Y-114003095D01*
X193548095Y-130262381D02*
X193548095Y-131071905D01*
X193595714Y-131167143D01*
X193643333Y-131214762D01*
X193738571Y-131262381D01*
X193929048Y-131262381D01*
X194024286Y-131214762D01*
X194071905Y-131167143D01*
X194119524Y-131071905D01*
X194119524Y-130262381D01*
X195119524Y-131262381D02*
X194548095Y-131262381D01*
X194833809Y-131262381D02*
X194833809Y-130262381D01*
X194738571Y-130405238D01*
X194643333Y-130500476D01*
X194548095Y-130548095D01*
X76136667Y-43242381D02*
X75803333Y-42766190D01*
X75565238Y-43242381D02*
X75565238Y-42242381D01*
X75946191Y-42242381D01*
X76041429Y-42290000D01*
X76089048Y-42337619D01*
X76136667Y-42432857D01*
X76136667Y-42575714D01*
X76089048Y-42670952D01*
X76041429Y-42718571D01*
X75946191Y-42766190D01*
X75565238Y-42766190D01*
X76565238Y-42718571D02*
X76898572Y-42718571D01*
X77041429Y-43242381D02*
X76565238Y-43242381D01*
X76565238Y-42242381D01*
X77041429Y-42242381D01*
X77803334Y-42718571D02*
X77470000Y-42718571D01*
X77470000Y-43242381D02*
X77470000Y-42242381D01*
X77946191Y-42242381D01*
X78470000Y-42242381D02*
X78470000Y-42480476D01*
X78231905Y-42385238D02*
X78470000Y-42480476D01*
X78708096Y-42385238D01*
X78327143Y-42670952D02*
X78470000Y-42480476D01*
X78612858Y-42670952D01*
X79231905Y-42242381D02*
X79231905Y-42480476D01*
X78993810Y-42385238D02*
X79231905Y-42480476D01*
X79470001Y-42385238D01*
X79089048Y-42670952D02*
X79231905Y-42480476D01*
X79374763Y-42670952D01*
X215201667Y-43242381D02*
X214868333Y-42766190D01*
X214630238Y-43242381D02*
X214630238Y-42242381D01*
X215011191Y-42242381D01*
X215106429Y-42290000D01*
X215154048Y-42337619D01*
X215201667Y-42432857D01*
X215201667Y-42575714D01*
X215154048Y-42670952D01*
X215106429Y-42718571D01*
X215011191Y-42766190D01*
X214630238Y-42766190D01*
X215630238Y-42718571D02*
X215963572Y-42718571D01*
X216106429Y-43242381D02*
X215630238Y-43242381D01*
X215630238Y-42242381D01*
X216106429Y-42242381D01*
X216868334Y-42718571D02*
X216535000Y-42718571D01*
X216535000Y-43242381D02*
X216535000Y-42242381D01*
X217011191Y-42242381D01*
X217535000Y-42242381D02*
X217535000Y-42480476D01*
X217296905Y-42385238D02*
X217535000Y-42480476D01*
X217773096Y-42385238D01*
X217392143Y-42670952D02*
X217535000Y-42480476D01*
X217677858Y-42670952D01*
X218296905Y-42242381D02*
X218296905Y-42480476D01*
X218058810Y-42385238D02*
X218296905Y-42480476D01*
X218535001Y-42385238D01*
X218154048Y-42670952D02*
X218296905Y-42480476D01*
X218439763Y-42670952D01*
X76136667Y-130872381D02*
X75803333Y-130396190D01*
X75565238Y-130872381D02*
X75565238Y-129872381D01*
X75946191Y-129872381D01*
X76041429Y-129920000D01*
X76089048Y-129967619D01*
X76136667Y-130062857D01*
X76136667Y-130205714D01*
X76089048Y-130300952D01*
X76041429Y-130348571D01*
X75946191Y-130396190D01*
X75565238Y-130396190D01*
X76565238Y-130348571D02*
X76898572Y-130348571D01*
X77041429Y-130872381D02*
X76565238Y-130872381D01*
X76565238Y-129872381D01*
X77041429Y-129872381D01*
X77803334Y-130348571D02*
X77470000Y-130348571D01*
X77470000Y-130872381D02*
X77470000Y-129872381D01*
X77946191Y-129872381D01*
X78470000Y-129872381D02*
X78470000Y-130110476D01*
X78231905Y-130015238D02*
X78470000Y-130110476D01*
X78708096Y-130015238D01*
X78327143Y-130300952D02*
X78470000Y-130110476D01*
X78612858Y-130300952D01*
X79231905Y-129872381D02*
X79231905Y-130110476D01*
X78993810Y-130015238D02*
X79231905Y-130110476D01*
X79470001Y-130015238D01*
X79089048Y-130300952D02*
X79231905Y-130110476D01*
X79374763Y-130300952D01*
X215201667Y-130872381D02*
X214868333Y-130396190D01*
X214630238Y-130872381D02*
X214630238Y-129872381D01*
X215011191Y-129872381D01*
X215106429Y-129920000D01*
X215154048Y-129967619D01*
X215201667Y-130062857D01*
X215201667Y-130205714D01*
X215154048Y-130300952D01*
X215106429Y-130348571D01*
X215011191Y-130396190D01*
X214630238Y-130396190D01*
X215630238Y-130348571D02*
X215963572Y-130348571D01*
X216106429Y-130872381D02*
X215630238Y-130872381D01*
X215630238Y-129872381D01*
X216106429Y-129872381D01*
X216868334Y-130348571D02*
X216535000Y-130348571D01*
X216535000Y-130872381D02*
X216535000Y-129872381D01*
X217011191Y-129872381D01*
X217535000Y-129872381D02*
X217535000Y-130110476D01*
X217296905Y-130015238D02*
X217535000Y-130110476D01*
X217773096Y-130015238D01*
X217392143Y-130300952D02*
X217535000Y-130110476D01*
X217677858Y-130300952D01*
X218296905Y-129872381D02*
X218296905Y-130110476D01*
X218058810Y-130015238D02*
X218296905Y-130110476D01*
X218535001Y-130015238D01*
X218154048Y-130300952D02*
X218296905Y-130110476D01*
X218439763Y-130300952D01*
X145986667Y-130872381D02*
X145653333Y-130396190D01*
X145415238Y-130872381D02*
X145415238Y-129872381D01*
X145796191Y-129872381D01*
X145891429Y-129920000D01*
X145939048Y-129967619D01*
X145986667Y-130062857D01*
X145986667Y-130205714D01*
X145939048Y-130300952D01*
X145891429Y-130348571D01*
X145796191Y-130396190D01*
X145415238Y-130396190D01*
X146415238Y-130348571D02*
X146748572Y-130348571D01*
X146891429Y-130872381D02*
X146415238Y-130872381D01*
X146415238Y-129872381D01*
X146891429Y-129872381D01*
X147653334Y-130348571D02*
X147320000Y-130348571D01*
X147320000Y-130872381D02*
X147320000Y-129872381D01*
X147796191Y-129872381D01*
X148320000Y-129872381D02*
X148320000Y-130110476D01*
X148081905Y-130015238D02*
X148320000Y-130110476D01*
X148558096Y-130015238D01*
X148177143Y-130300952D02*
X148320000Y-130110476D01*
X148462858Y-130300952D01*
X149081905Y-129872381D02*
X149081905Y-130110476D01*
X148843810Y-130015238D02*
X149081905Y-130110476D01*
X149320001Y-130015238D01*
X148939048Y-130300952D02*
X149081905Y-130110476D01*
X149224763Y-130300952D01*
X147891667Y-43242381D02*
X147558333Y-42766190D01*
X147320238Y-43242381D02*
X147320238Y-42242381D01*
X147701191Y-42242381D01*
X147796429Y-42290000D01*
X147844048Y-42337619D01*
X147891667Y-42432857D01*
X147891667Y-42575714D01*
X147844048Y-42670952D01*
X147796429Y-42718571D01*
X147701191Y-42766190D01*
X147320238Y-42766190D01*
X148320238Y-42718571D02*
X148653572Y-42718571D01*
X148796429Y-43242381D02*
X148320238Y-43242381D01*
X148320238Y-42242381D01*
X148796429Y-42242381D01*
X149558334Y-42718571D02*
X149225000Y-42718571D01*
X149225000Y-43242381D02*
X149225000Y-42242381D01*
X149701191Y-42242381D01*
X150225000Y-42242381D02*
X150225000Y-42480476D01*
X149986905Y-42385238D02*
X150225000Y-42480476D01*
X150463096Y-42385238D01*
X150082143Y-42670952D02*
X150225000Y-42480476D01*
X150367858Y-42670952D01*
X150986905Y-42242381D02*
X150986905Y-42480476D01*
X150748810Y-42385238D02*
X150986905Y-42480476D01*
X151225001Y-42385238D01*
X150844048Y-42670952D02*
X150986905Y-42480476D01*
X151129763Y-42670952D01*
M02*
