M48
;DRILL file {KiCad 4.0.7-e2-6376~61~ubuntu18.04.1} date Tue Aug 27 14:52:48 2019
;FORMAT={3:3/ absolute / metric / suppress leading zeros}
FMAT,2
METRIC,TZ
T1C0.400
T2C0.600
T3C0.700
T4C0.800
T5C0.900
T6C1.000
T7C1.600
T8C3.200
T9C5.000
%
G90
G05
M71
T1
X80010Y-83820
X81280Y-83185
X85090Y-72390
X87503Y-92710
X99060Y-97790
X99060Y-100330
X100330Y-90170
X101600Y-83820
X101600Y-92710
X102870Y-83185
X104775Y-110490
X105410Y-111125
X105410Y-121285
X106045Y-111760
X106045Y-121920
X106680Y-72390
X106680Y-112395
X107950Y-124460
X109093Y-92710
X109855Y-105410
X111125Y-105410
X111760Y-99060
X112395Y-98425
X114300Y-128270
X114935Y-128905
X115570Y-129540
X116840Y-128270
X117475Y-128905
X117475Y-130810
X118110Y-131445
X120015Y-129540
X120015Y-132080
X120650Y-120015
X122555Y-130810
X125730Y-131445
X127000Y-83820
X128270Y-83185
X132080Y-72390
X134493Y-92710
X145415Y-108585
X145415Y-109855
X146050Y-97790
X146050Y-100330
X147320Y-90170
X147320Y-123190
X147320Y-127635
X148590Y-83820
X148590Y-92710
X149860Y-83185
X151130Y-110490
X151765Y-111125
X152400Y-111760
X153035Y-112395
X153670Y-72390
X153670Y-123190
X154305Y-123825
X156083Y-92710
X156210Y-105410
X156845Y-109855
X157480Y-105410
X158115Y-108585
X158750Y-99060
X159385Y-98425
X169545Y-123825
X172720Y-108585
X173355Y-116205
X173990Y-83820
X173990Y-123190
X174625Y-108585
X175260Y-83185
X176530Y-123190
X177165Y-123825
X179070Y-72390
X181483Y-92710
X193040Y-97790
X193040Y-100330
X194310Y-90170
X195580Y-83820
X195580Y-92710
X196850Y-83185
X198120Y-110490
X198755Y-111125
X199390Y-111760
X200025Y-112395
X200660Y-72390
X203073Y-92710
X203200Y-105410
X204470Y-105410
X205740Y-99060
X206375Y-98425
T2
X123190Y-83185
X123190Y-84455
X123190Y-85725
X123190Y-88900
X123190Y-90170
X123190Y-91440
X170180Y-82550
X170180Y-83820
X170180Y-85090
X170180Y-88265
X170180Y-89535
X170180Y-90805
T3
X123190Y-64770
X123190Y-67310
X123190Y-72390
X123190Y-74930
X170180Y-64770
X170180Y-67310
X170180Y-72390
X170180Y-74930
T4
X85090Y-87630
X85090Y-90170
X85090Y-92710
X85090Y-95250
X85090Y-97790
X85090Y-100330
X85090Y-102870
X85090Y-105410
X92075Y-118745
X92075Y-126365
X92710Y-87630
X92710Y-90170
X92710Y-92710
X92710Y-95250
X92710Y-97790
X92710Y-100330
X92710Y-102870
X92710Y-105410
X94615Y-118745
X94615Y-126365
X97155Y-118745
X97155Y-126365
X97790Y-45720
X97790Y-55880
X99695Y-118745
X99695Y-126365
X102235Y-118745
X102235Y-126365
X104775Y-118745
X104775Y-126365
X106680Y-87630
X106680Y-90170
X106680Y-92710
X106680Y-95250
X106680Y-97790
X106680Y-100330
X106680Y-102870
X106680Y-105410
X107315Y-118745
X107315Y-126365
X109855Y-118745
X109855Y-126365
X114300Y-87630
X114300Y-90170
X114300Y-92710
X114300Y-95250
X114300Y-97790
X114300Y-100330
X114300Y-102870
X114300Y-105410
X115570Y-113665
X115570Y-136525
X118110Y-113665
X118110Y-136525
X119380Y-45720
X119380Y-55880
X120650Y-113665
X120650Y-136525
X123190Y-45720
X123190Y-55880
X123190Y-113665
X123190Y-136525
X125730Y-113665
X125730Y-136525
X127000Y-45720
X127000Y-55880
X128270Y-113665
X128270Y-136525
X130810Y-113665
X130810Y-136525
X132080Y-87630
X132080Y-90170
X132080Y-92710
X132080Y-95250
X132080Y-97790
X132080Y-100330
X132080Y-102870
X132080Y-105410
X133350Y-113665
X133350Y-136525
X138430Y-118745
X138430Y-126365
X139700Y-87630
X139700Y-90170
X139700Y-92710
X139700Y-95250
X139700Y-97790
X139700Y-100330
X139700Y-102870
X139700Y-105410
X140970Y-118745
X140970Y-126365
X143510Y-118745
X143510Y-126365
X144145Y-45720
X144145Y-55880
X146050Y-118745
X146050Y-126365
X148590Y-118745
X148590Y-126365
X151130Y-118745
X151130Y-126365
X153670Y-87630
X153670Y-90170
X153670Y-92710
X153670Y-95250
X153670Y-97790
X153670Y-100330
X153670Y-102870
X153670Y-105410
X153670Y-118745
X153670Y-126365
X156210Y-118745
X156210Y-126365
X161290Y-87630
X161290Y-90170
X161290Y-92710
X161290Y-95250
X161290Y-97790
X161290Y-100330
X161290Y-102870
X161290Y-105410
X161925Y-118745
X161925Y-126365
X164465Y-118745
X164465Y-126365
X166370Y-45720
X166370Y-55880
X167005Y-118745
X167005Y-126365
X169545Y-118745
X169545Y-126365
X170180Y-45720
X170180Y-55880
X172085Y-118745
X172085Y-126365
X173990Y-45720
X173990Y-55880
X174625Y-118745
X174625Y-126365
X177165Y-118745
X177165Y-126365
X179070Y-87630
X179070Y-90170
X179070Y-92710
X179070Y-95250
X179070Y-97790
X179070Y-100330
X179070Y-102870
X179070Y-105410
X179705Y-118745
X179705Y-126365
X185420Y-118745
X185420Y-126365
X186690Y-87630
X186690Y-90170
X186690Y-92710
X186690Y-95250
X186690Y-97790
X186690Y-100330
X186690Y-102870
X186690Y-105410
X187960Y-118745
X187960Y-126365
X190500Y-118745
X190500Y-126365
X191770Y-45720
X191770Y-55880
X193040Y-118745
X193040Y-126365
X194310Y-136525
X195580Y-118745
X195580Y-126365
X198120Y-118745
X198120Y-126365
X199310Y-136525
X200660Y-87630
X200660Y-90170
X200660Y-92710
X200660Y-95250
X200660Y-97790
X200660Y-100330
X200660Y-102870
X200660Y-105410
X200660Y-118745
X200660Y-126365
X201375Y-136525
X203200Y-118745
X203200Y-126365
X206375Y-136525
X208280Y-87630
X208280Y-90170
X208280Y-92710
X208280Y-95250
X208280Y-97790
X208280Y-100330
X208280Y-102870
X208280Y-105410
X211455Y-45720
X211455Y-55880
T5
X123190Y-109220
X125690Y-109220
X128190Y-109220
X216535Y-103585
X216535Y-106085
X216535Y-108585
T6
X85090Y-116205
X85090Y-118745
X85090Y-121285
X85090Y-123825
X85090Y-126365
X85090Y-128905
X198120Y-132080
X200660Y-132080
X203200Y-132080
T7
X83150Y-65350
X83150Y-69850
X83150Y-74350
X84900Y-61850
X84900Y-77850
X88900Y-60850
X88900Y-78850
X92900Y-61850
X92900Y-77850
X94650Y-65350
X94650Y-69850
X94650Y-74350
X104740Y-65350
X104740Y-69850
X104740Y-74350
X106490Y-61850
X106490Y-77850
X110490Y-60850
X110490Y-78850
X114490Y-61850
X114490Y-77850
X116240Y-65350
X116240Y-69850
X116240Y-74350
X130140Y-65350
X130140Y-69850
X130140Y-74350
X131890Y-61850
X131890Y-77850
X135890Y-60850
X135890Y-78850
X139890Y-61850
X139890Y-77850
X141640Y-65350
X141640Y-69850
X141640Y-74350
X151730Y-65350
X151730Y-69850
X151730Y-74350
X153480Y-61850
X153480Y-77850
X157480Y-60850
X157480Y-78850
X161480Y-61850
X161480Y-77850
X163230Y-65350
X163230Y-69850
X163230Y-74350
X177130Y-65350
X177130Y-69850
X177130Y-74350
X178880Y-61850
X178880Y-77850
X182880Y-60850
X182880Y-78850
X186880Y-61850
X186880Y-77850
X188630Y-65350
X188630Y-69850
X188630Y-74350
X198720Y-65350
X198720Y-69850
X198720Y-74350
X200470Y-61850
X200470Y-77850
X204470Y-60850
X204470Y-78850
X208470Y-61850
X208470Y-77850
X210220Y-65350
X210220Y-69850
X210220Y-74350
T8
X77470Y-46990
X77470Y-134620
X147320Y-134620
X149225Y-46990
X216535Y-46990
X216535Y-134620
T9
X88900Y-69850
X110490Y-69850
X135890Y-69850
X157480Y-69850
X182880Y-69850
X204470Y-69850
T6
X210185Y-121015G85X210185Y-119015
G05
X214185Y-115315G85X212185Y-115315
G05
X216185Y-121015G85X216185Y-119015
G05
T0
M30
