G04 #@! TF.FileFunction,Soldermask,Top*
%FSLAX46Y46*%
G04 Gerber Fmt 4.6, Leading zero omitted, Abs format (unit mm)*
G04 Created by KiCad (PCBNEW 4.0.7-e2-6376~61~ubuntu18.04.1) date Tue Aug 27 15:06:58 2019*
%MOMM*%
%LPD*%
G01*
G04 APERTURE LIST*
%ADD10C,0.100000*%
%ADD11R,2.000000X2.000000*%
%ADD12O,2.000000X2.000000*%
%ADD13R,2.250000X2.250000*%
%ADD14C,2.250000*%
%ADD15R,2.800000X2.000000*%
%ADD16O,2.800000X2.000000*%
%ADD17O,1.900000X1.300000*%
%ADD18R,1.900000X1.300000*%
%ADD19C,2.000000*%
%ADD20R,2.100000X2.100000*%
%ADD21O,2.100000X2.100000*%
%ADD22C,2.800000*%
%ADD23C,1.822400*%
%ADD24R,2.000000X2.800000*%
%ADD25O,2.000000X2.800000*%
%ADD26R,3.900000X3.900000*%
%ADD27R,2.200000X2.200000*%
%ADD28O,2.200000X2.200000*%
%ADD29C,3.600000*%
G04 APERTURE END LIST*
D10*
D11*
X115570000Y-136525000D03*
D12*
X133350000Y-113665000D03*
X118110000Y-136525000D03*
X130810000Y-113665000D03*
X120650000Y-136525000D03*
X128270000Y-113665000D03*
X123190000Y-136525000D03*
X125730000Y-113665000D03*
X125730000Y-136525000D03*
X123190000Y-113665000D03*
X128270000Y-136525000D03*
X120650000Y-113665000D03*
X130810000Y-136525000D03*
X118110000Y-113665000D03*
X133350000Y-136525000D03*
X115570000Y-113665000D03*
D13*
X123190000Y-109220000D03*
D14*
X125690000Y-109220000D03*
X128190000Y-109220000D03*
D15*
X92710000Y-105410000D03*
D16*
X85090000Y-87630000D03*
X92710000Y-102870000D03*
X85090000Y-90170000D03*
X92710000Y-100330000D03*
X85090000Y-92710000D03*
X92710000Y-97790000D03*
X85090000Y-95250000D03*
X92710000Y-95250000D03*
X85090000Y-97790000D03*
X92710000Y-92710000D03*
X85090000Y-100330000D03*
X92710000Y-90170000D03*
X85090000Y-102870000D03*
X92710000Y-87630000D03*
X85090000Y-105410000D03*
D17*
X170180000Y-89535000D03*
X170180000Y-88265000D03*
D18*
X170180000Y-90805000D03*
D17*
X123190000Y-90170000D03*
X123190000Y-88900000D03*
D18*
X123190000Y-91440000D03*
D17*
X170180000Y-83820000D03*
X170180000Y-82550000D03*
D18*
X170180000Y-85090000D03*
D17*
X123190000Y-84455000D03*
X123190000Y-83185000D03*
D18*
X123190000Y-85725000D03*
D19*
X97790000Y-45720000D03*
D12*
X97790000Y-55880000D03*
D19*
X119380000Y-45720000D03*
D12*
X119380000Y-55880000D03*
D19*
X123190000Y-45720000D03*
D12*
X123190000Y-55880000D03*
D19*
X127000000Y-45720000D03*
D12*
X127000000Y-55880000D03*
D19*
X144145000Y-45720000D03*
D12*
X144145000Y-55880000D03*
D19*
X166370000Y-45720000D03*
D12*
X166370000Y-55880000D03*
D19*
X170180000Y-45720000D03*
D12*
X170180000Y-55880000D03*
D19*
X173990000Y-45720000D03*
D12*
X173990000Y-55880000D03*
D19*
X191770000Y-45720000D03*
D12*
X191770000Y-55880000D03*
D19*
X211455000Y-45720000D03*
D12*
X211455000Y-55880000D03*
D20*
X85090000Y-128905000D03*
D21*
X85090000Y-126365000D03*
X85090000Y-123825000D03*
X85090000Y-121285000D03*
X85090000Y-118745000D03*
X85090000Y-116205000D03*
D15*
X114300000Y-105410000D03*
D16*
X106680000Y-87630000D03*
X114300000Y-102870000D03*
X106680000Y-90170000D03*
X114300000Y-100330000D03*
X106680000Y-92710000D03*
X114300000Y-97790000D03*
X106680000Y-95250000D03*
X114300000Y-95250000D03*
X106680000Y-97790000D03*
X114300000Y-92710000D03*
X106680000Y-100330000D03*
X114300000Y-90170000D03*
X106680000Y-102870000D03*
X114300000Y-87630000D03*
X106680000Y-105410000D03*
D15*
X139700000Y-105410000D03*
D16*
X132080000Y-87630000D03*
X139700000Y-102870000D03*
X132080000Y-90170000D03*
X139700000Y-100330000D03*
X132080000Y-92710000D03*
X139700000Y-97790000D03*
X132080000Y-95250000D03*
X139700000Y-95250000D03*
X132080000Y-97790000D03*
X139700000Y-92710000D03*
X132080000Y-100330000D03*
X139700000Y-90170000D03*
X132080000Y-102870000D03*
X139700000Y-87630000D03*
X132080000Y-105410000D03*
D15*
X161290000Y-105410000D03*
D16*
X153670000Y-87630000D03*
X161290000Y-102870000D03*
X153670000Y-90170000D03*
X161290000Y-100330000D03*
X153670000Y-92710000D03*
X161290000Y-97790000D03*
X153670000Y-95250000D03*
X161290000Y-95250000D03*
X153670000Y-97790000D03*
X161290000Y-92710000D03*
X153670000Y-100330000D03*
X161290000Y-90170000D03*
X153670000Y-102870000D03*
X161290000Y-87630000D03*
X153670000Y-105410000D03*
D15*
X186690000Y-105410000D03*
D16*
X179070000Y-87630000D03*
X186690000Y-102870000D03*
X179070000Y-90170000D03*
X186690000Y-100330000D03*
X179070000Y-92710000D03*
X186690000Y-97790000D03*
X179070000Y-95250000D03*
X186690000Y-95250000D03*
X179070000Y-97790000D03*
X186690000Y-92710000D03*
X179070000Y-100330000D03*
X186690000Y-90170000D03*
X179070000Y-102870000D03*
X186690000Y-87630000D03*
X179070000Y-105410000D03*
D15*
X208280000Y-105410000D03*
D16*
X200660000Y-87630000D03*
X208280000Y-102870000D03*
X200660000Y-90170000D03*
X208280000Y-100330000D03*
X200660000Y-92710000D03*
X208280000Y-97790000D03*
X200660000Y-95250000D03*
X208280000Y-95250000D03*
X200660000Y-97790000D03*
X208280000Y-92710000D03*
X200660000Y-100330000D03*
X208280000Y-90170000D03*
X200660000Y-102870000D03*
X208280000Y-87630000D03*
X200660000Y-105410000D03*
D22*
X88900000Y-60850000D03*
X94650000Y-69850000D03*
X94650000Y-65350000D03*
X88900000Y-78850000D03*
X94650000Y-74350000D03*
X92900000Y-77850000D03*
X92900000Y-61850000D03*
X84900000Y-61850000D03*
X83150000Y-65350000D03*
X83150000Y-69850000D03*
X83150000Y-74350000D03*
X84900000Y-77850000D03*
X110490000Y-60850000D03*
X116240000Y-69850000D03*
X116240000Y-65350000D03*
X110490000Y-78850000D03*
X116240000Y-74350000D03*
X114490000Y-77850000D03*
X114490000Y-61850000D03*
X106490000Y-61850000D03*
X104740000Y-65350000D03*
X104740000Y-69850000D03*
X104740000Y-74350000D03*
X106490000Y-77850000D03*
X135890000Y-60850000D03*
X141640000Y-69850000D03*
X141640000Y-65350000D03*
X135890000Y-78850000D03*
X141640000Y-74350000D03*
X139890000Y-77850000D03*
X139890000Y-61850000D03*
X131890000Y-61850000D03*
X130140000Y-65350000D03*
X130140000Y-69850000D03*
X130140000Y-74350000D03*
X131890000Y-77850000D03*
X157480000Y-60850000D03*
X163230000Y-69850000D03*
X163230000Y-65350000D03*
X157480000Y-78850000D03*
X163230000Y-74350000D03*
X161480000Y-77850000D03*
X161480000Y-61850000D03*
X153480000Y-61850000D03*
X151730000Y-65350000D03*
X151730000Y-69850000D03*
X151730000Y-74350000D03*
X153480000Y-77850000D03*
X182880000Y-60850000D03*
X188630000Y-69850000D03*
X188630000Y-65350000D03*
X182880000Y-78850000D03*
X188630000Y-74350000D03*
X186880000Y-77850000D03*
X186880000Y-61850000D03*
X178880000Y-61850000D03*
X177130000Y-65350000D03*
X177130000Y-69850000D03*
X177130000Y-74350000D03*
X178880000Y-77850000D03*
X204470000Y-60850000D03*
X210220000Y-69850000D03*
X210220000Y-65350000D03*
X204470000Y-78850000D03*
X210220000Y-74350000D03*
X208470000Y-77850000D03*
X208470000Y-61850000D03*
X200470000Y-61850000D03*
X198720000Y-65350000D03*
X198720000Y-69850000D03*
X198720000Y-74350000D03*
X200470000Y-77850000D03*
D23*
X170180000Y-74930000D03*
X170180000Y-72390000D03*
X170180000Y-67310000D03*
X170180000Y-64770000D03*
X123190000Y-74930000D03*
X123190000Y-72390000D03*
X123190000Y-67310000D03*
X123190000Y-64770000D03*
D24*
X179705000Y-118745000D03*
D25*
X161925000Y-126365000D03*
X177165000Y-118745000D03*
X164465000Y-126365000D03*
X174625000Y-118745000D03*
X167005000Y-126365000D03*
X172085000Y-118745000D03*
X169545000Y-126365000D03*
X169545000Y-118745000D03*
X172085000Y-126365000D03*
X167005000Y-118745000D03*
X174625000Y-126365000D03*
X164465000Y-118745000D03*
X177165000Y-126365000D03*
X161925000Y-118745000D03*
X179705000Y-126365000D03*
D24*
X109855000Y-118745000D03*
D25*
X92075000Y-126365000D03*
X107315000Y-118745000D03*
X94615000Y-126365000D03*
X104775000Y-118745000D03*
X97155000Y-126365000D03*
X102235000Y-118745000D03*
X99695000Y-126365000D03*
X99695000Y-118745000D03*
X102235000Y-126365000D03*
X97155000Y-118745000D03*
X104775000Y-126365000D03*
X94615000Y-118745000D03*
X107315000Y-126365000D03*
X92075000Y-118745000D03*
X109855000Y-126365000D03*
D24*
X156210000Y-118745000D03*
D25*
X138430000Y-126365000D03*
X153670000Y-118745000D03*
X140970000Y-126365000D03*
X151130000Y-118745000D03*
X143510000Y-126365000D03*
X148590000Y-118745000D03*
X146050000Y-126365000D03*
X146050000Y-118745000D03*
X148590000Y-126365000D03*
X143510000Y-118745000D03*
X151130000Y-126365000D03*
X140970000Y-118745000D03*
X153670000Y-126365000D03*
X138430000Y-118745000D03*
X156210000Y-126365000D03*
D24*
X203200000Y-118745000D03*
D25*
X185420000Y-126365000D03*
X200660000Y-118745000D03*
X187960000Y-126365000D03*
X198120000Y-118745000D03*
X190500000Y-126365000D03*
X195580000Y-118745000D03*
X193040000Y-126365000D03*
X193040000Y-118745000D03*
X195580000Y-126365000D03*
X190500000Y-118745000D03*
X198120000Y-126365000D03*
X187960000Y-118745000D03*
X200660000Y-126365000D03*
X185420000Y-118745000D03*
X203200000Y-126365000D03*
D13*
X216535000Y-108585000D03*
D14*
X216535000Y-106085000D03*
X216535000Y-103585000D03*
D19*
X206375000Y-136525000D03*
X201375000Y-136525000D03*
X194310000Y-136525000D03*
X199310000Y-136525000D03*
D26*
X210185000Y-120015000D03*
X216185000Y-120015000D03*
X213185000Y-115315000D03*
D27*
X203200000Y-132080000D03*
D28*
X200660000Y-132080000D03*
X198120000Y-132080000D03*
D29*
X77470000Y-46990000D03*
X216535000Y-46990000D03*
X77470000Y-134620000D03*
X216535000Y-134620000D03*
X147320000Y-134620000D03*
X149225000Y-46990000D03*
M02*
