G04 #@! TF.FileFunction,Copper,L1,Top,Signal*
%FSLAX46Y46*%
G04 Gerber Fmt 4.6, Leading zero omitted, Abs format (unit mm)*
G04 Created by KiCad (PCBNEW 4.0.7-e2-6376~61~ubuntu18.04.1) date Tue Aug 27 15:06:58 2019*
%MOMM*%
%LPD*%
G01*
G04 APERTURE LIST*
%ADD10C,0.100000*%
%ADD11R,1.600000X1.600000*%
%ADD12O,1.600000X1.600000*%
%ADD13R,1.850000X1.850000*%
%ADD14C,1.850000*%
%ADD15R,2.400000X1.600000*%
%ADD16O,2.400000X1.600000*%
%ADD17O,1.500000X0.900000*%
%ADD18R,1.500000X0.900000*%
%ADD19C,1.600000*%
%ADD20R,1.700000X1.700000*%
%ADD21O,1.700000X1.700000*%
%ADD22C,2.400000*%
%ADD23C,1.422400*%
%ADD24R,1.600000X2.400000*%
%ADD25O,1.600000X2.400000*%
%ADD26R,3.500000X3.500000*%
%ADD27R,1.800000X1.800000*%
%ADD28O,1.800000X1.800000*%
%ADD29C,0.600000*%
%ADD30C,1.000000*%
%ADD31C,0.250000*%
%ADD32C,0.500000*%
G04 APERTURE END LIST*
D10*
D11*
X115570000Y-136525000D03*
D12*
X133350000Y-113665000D03*
X118110000Y-136525000D03*
X130810000Y-113665000D03*
X120650000Y-136525000D03*
X128270000Y-113665000D03*
X123190000Y-136525000D03*
X125730000Y-113665000D03*
X125730000Y-136525000D03*
X123190000Y-113665000D03*
X128270000Y-136525000D03*
X120650000Y-113665000D03*
X130810000Y-136525000D03*
X118110000Y-113665000D03*
X133350000Y-136525000D03*
X115570000Y-113665000D03*
D13*
X123190000Y-109220000D03*
D14*
X125690000Y-109220000D03*
X128190000Y-109220000D03*
D15*
X92710000Y-105410000D03*
D16*
X85090000Y-87630000D03*
X92710000Y-102870000D03*
X85090000Y-90170000D03*
X92710000Y-100330000D03*
X85090000Y-92710000D03*
X92710000Y-97790000D03*
X85090000Y-95250000D03*
X92710000Y-95250000D03*
X85090000Y-97790000D03*
X92710000Y-92710000D03*
X85090000Y-100330000D03*
X92710000Y-90170000D03*
X85090000Y-102870000D03*
X92710000Y-87630000D03*
X85090000Y-105410000D03*
D17*
X170180000Y-89535000D03*
X170180000Y-88265000D03*
D18*
X170180000Y-90805000D03*
D17*
X123190000Y-90170000D03*
X123190000Y-88900000D03*
D18*
X123190000Y-91440000D03*
D17*
X170180000Y-83820000D03*
X170180000Y-82550000D03*
D18*
X170180000Y-85090000D03*
D17*
X123190000Y-84455000D03*
X123190000Y-83185000D03*
D18*
X123190000Y-85725000D03*
D19*
X97790000Y-45720000D03*
D12*
X97790000Y-55880000D03*
D19*
X119380000Y-45720000D03*
D12*
X119380000Y-55880000D03*
D19*
X123190000Y-45720000D03*
D12*
X123190000Y-55880000D03*
D19*
X127000000Y-45720000D03*
D12*
X127000000Y-55880000D03*
D19*
X144145000Y-45720000D03*
D12*
X144145000Y-55880000D03*
D19*
X166370000Y-45720000D03*
D12*
X166370000Y-55880000D03*
D19*
X170180000Y-45720000D03*
D12*
X170180000Y-55880000D03*
D19*
X173990000Y-45720000D03*
D12*
X173990000Y-55880000D03*
D19*
X191770000Y-45720000D03*
D12*
X191770000Y-55880000D03*
D19*
X211455000Y-45720000D03*
D12*
X211455000Y-55880000D03*
D20*
X85090000Y-128905000D03*
D21*
X85090000Y-126365000D03*
X85090000Y-123825000D03*
X85090000Y-121285000D03*
X85090000Y-118745000D03*
X85090000Y-116205000D03*
D15*
X114300000Y-105410000D03*
D16*
X106680000Y-87630000D03*
X114300000Y-102870000D03*
X106680000Y-90170000D03*
X114300000Y-100330000D03*
X106680000Y-92710000D03*
X114300000Y-97790000D03*
X106680000Y-95250000D03*
X114300000Y-95250000D03*
X106680000Y-97790000D03*
X114300000Y-92710000D03*
X106680000Y-100330000D03*
X114300000Y-90170000D03*
X106680000Y-102870000D03*
X114300000Y-87630000D03*
X106680000Y-105410000D03*
D15*
X139700000Y-105410000D03*
D16*
X132080000Y-87630000D03*
X139700000Y-102870000D03*
X132080000Y-90170000D03*
X139700000Y-100330000D03*
X132080000Y-92710000D03*
X139700000Y-97790000D03*
X132080000Y-95250000D03*
X139700000Y-95250000D03*
X132080000Y-97790000D03*
X139700000Y-92710000D03*
X132080000Y-100330000D03*
X139700000Y-90170000D03*
X132080000Y-102870000D03*
X139700000Y-87630000D03*
X132080000Y-105410000D03*
D15*
X161290000Y-105410000D03*
D16*
X153670000Y-87630000D03*
X161290000Y-102870000D03*
X153670000Y-90170000D03*
X161290000Y-100330000D03*
X153670000Y-92710000D03*
X161290000Y-97790000D03*
X153670000Y-95250000D03*
X161290000Y-95250000D03*
X153670000Y-97790000D03*
X161290000Y-92710000D03*
X153670000Y-100330000D03*
X161290000Y-90170000D03*
X153670000Y-102870000D03*
X161290000Y-87630000D03*
X153670000Y-105410000D03*
D15*
X186690000Y-105410000D03*
D16*
X179070000Y-87630000D03*
X186690000Y-102870000D03*
X179070000Y-90170000D03*
X186690000Y-100330000D03*
X179070000Y-92710000D03*
X186690000Y-97790000D03*
X179070000Y-95250000D03*
X186690000Y-95250000D03*
X179070000Y-97790000D03*
X186690000Y-92710000D03*
X179070000Y-100330000D03*
X186690000Y-90170000D03*
X179070000Y-102870000D03*
X186690000Y-87630000D03*
X179070000Y-105410000D03*
D15*
X208280000Y-105410000D03*
D16*
X200660000Y-87630000D03*
X208280000Y-102870000D03*
X200660000Y-90170000D03*
X208280000Y-100330000D03*
X200660000Y-92710000D03*
X208280000Y-97790000D03*
X200660000Y-95250000D03*
X208280000Y-95250000D03*
X200660000Y-97790000D03*
X208280000Y-92710000D03*
X200660000Y-100330000D03*
X208280000Y-90170000D03*
X200660000Y-102870000D03*
X208280000Y-87630000D03*
X200660000Y-105410000D03*
D22*
X88900000Y-60850000D03*
X94650000Y-69850000D03*
X94650000Y-65350000D03*
X88900000Y-78850000D03*
X94650000Y-74350000D03*
X92900000Y-77850000D03*
X92900000Y-61850000D03*
X84900000Y-61850000D03*
X83150000Y-65350000D03*
X83150000Y-69850000D03*
X83150000Y-74350000D03*
X84900000Y-77850000D03*
X110490000Y-60850000D03*
X116240000Y-69850000D03*
X116240000Y-65350000D03*
X110490000Y-78850000D03*
X116240000Y-74350000D03*
X114490000Y-77850000D03*
X114490000Y-61850000D03*
X106490000Y-61850000D03*
X104740000Y-65350000D03*
X104740000Y-69850000D03*
X104740000Y-74350000D03*
X106490000Y-77850000D03*
X135890000Y-60850000D03*
X141640000Y-69850000D03*
X141640000Y-65350000D03*
X135890000Y-78850000D03*
X141640000Y-74350000D03*
X139890000Y-77850000D03*
X139890000Y-61850000D03*
X131890000Y-61850000D03*
X130140000Y-65350000D03*
X130140000Y-69850000D03*
X130140000Y-74350000D03*
X131890000Y-77850000D03*
X157480000Y-60850000D03*
X163230000Y-69850000D03*
X163230000Y-65350000D03*
X157480000Y-78850000D03*
X163230000Y-74350000D03*
X161480000Y-77850000D03*
X161480000Y-61850000D03*
X153480000Y-61850000D03*
X151730000Y-65350000D03*
X151730000Y-69850000D03*
X151730000Y-74350000D03*
X153480000Y-77850000D03*
X182880000Y-60850000D03*
X188630000Y-69850000D03*
X188630000Y-65350000D03*
X182880000Y-78850000D03*
X188630000Y-74350000D03*
X186880000Y-77850000D03*
X186880000Y-61850000D03*
X178880000Y-61850000D03*
X177130000Y-65350000D03*
X177130000Y-69850000D03*
X177130000Y-74350000D03*
X178880000Y-77850000D03*
X204470000Y-60850000D03*
X210220000Y-69850000D03*
X210220000Y-65350000D03*
X204470000Y-78850000D03*
X210220000Y-74350000D03*
X208470000Y-77850000D03*
X208470000Y-61850000D03*
X200470000Y-61850000D03*
X198720000Y-65350000D03*
X198720000Y-69850000D03*
X198720000Y-74350000D03*
X200470000Y-77850000D03*
D23*
X170180000Y-74930000D03*
X170180000Y-72390000D03*
X170180000Y-67310000D03*
X170180000Y-64770000D03*
X123190000Y-74930000D03*
X123190000Y-72390000D03*
X123190000Y-67310000D03*
X123190000Y-64770000D03*
D24*
X179705000Y-118745000D03*
D25*
X161925000Y-126365000D03*
X177165000Y-118745000D03*
X164465000Y-126365000D03*
X174625000Y-118745000D03*
X167005000Y-126365000D03*
X172085000Y-118745000D03*
X169545000Y-126365000D03*
X169545000Y-118745000D03*
X172085000Y-126365000D03*
X167005000Y-118745000D03*
X174625000Y-126365000D03*
X164465000Y-118745000D03*
X177165000Y-126365000D03*
X161925000Y-118745000D03*
X179705000Y-126365000D03*
D24*
X109855000Y-118745000D03*
D25*
X92075000Y-126365000D03*
X107315000Y-118745000D03*
X94615000Y-126365000D03*
X104775000Y-118745000D03*
X97155000Y-126365000D03*
X102235000Y-118745000D03*
X99695000Y-126365000D03*
X99695000Y-118745000D03*
X102235000Y-126365000D03*
X97155000Y-118745000D03*
X104775000Y-126365000D03*
X94615000Y-118745000D03*
X107315000Y-126365000D03*
X92075000Y-118745000D03*
X109855000Y-126365000D03*
D24*
X156210000Y-118745000D03*
D25*
X138430000Y-126365000D03*
X153670000Y-118745000D03*
X140970000Y-126365000D03*
X151130000Y-118745000D03*
X143510000Y-126365000D03*
X148590000Y-118745000D03*
X146050000Y-126365000D03*
X146050000Y-118745000D03*
X148590000Y-126365000D03*
X143510000Y-118745000D03*
X151130000Y-126365000D03*
X140970000Y-118745000D03*
X153670000Y-126365000D03*
X138430000Y-118745000D03*
X156210000Y-126365000D03*
D24*
X203200000Y-118745000D03*
D25*
X185420000Y-126365000D03*
X200660000Y-118745000D03*
X187960000Y-126365000D03*
X198120000Y-118745000D03*
X190500000Y-126365000D03*
X195580000Y-118745000D03*
X193040000Y-126365000D03*
X193040000Y-118745000D03*
X195580000Y-126365000D03*
X190500000Y-118745000D03*
X198120000Y-126365000D03*
X187960000Y-118745000D03*
X200660000Y-126365000D03*
X185420000Y-118745000D03*
X203200000Y-126365000D03*
D13*
X216535000Y-108585000D03*
D14*
X216535000Y-106085000D03*
X216535000Y-103585000D03*
D19*
X206375000Y-136525000D03*
X201375000Y-136525000D03*
X194310000Y-136525000D03*
X199310000Y-136525000D03*
D26*
X210185000Y-120015000D03*
X216185000Y-120015000D03*
X213185000Y-115315000D03*
D27*
X203200000Y-132080000D03*
D28*
X200660000Y-132080000D03*
X198120000Y-132080000D03*
D29*
X173355000Y-116205000D03*
X156845000Y-109855000D03*
X145415000Y-109855000D03*
X145415000Y-108585000D03*
X158115000Y-108585000D03*
X174625000Y-108585000D03*
X172720000Y-108585000D03*
X107950000Y-124460000D03*
X120015000Y-132080000D03*
X115570000Y-129540000D03*
X120015000Y-129540000D03*
X147320000Y-123190000D03*
X153670000Y-123190000D03*
X173990000Y-123190000D03*
X176530000Y-123190000D03*
X106045000Y-121920000D03*
X117475000Y-130810000D03*
X122555000Y-130810000D03*
X120650000Y-120015000D03*
X147320000Y-127635000D03*
X154305000Y-123825000D03*
X169545000Y-123825000D03*
X177165000Y-123825000D03*
X105410000Y-121285000D03*
X118110000Y-131445000D03*
X125730000Y-131445000D03*
X114935000Y-128905000D03*
X117475000Y-128905000D03*
X99060000Y-100330000D03*
X85090000Y-72390000D03*
X99060000Y-97790000D03*
X81280000Y-83185000D03*
X101600000Y-92710000D03*
X80010000Y-83820000D03*
X100330000Y-90170000D03*
X87503000Y-92710000D03*
X106680000Y-112395000D03*
X106680000Y-72390000D03*
X106045000Y-111760000D03*
X102870000Y-83185000D03*
X105410000Y-111125000D03*
X111125000Y-105410000D03*
X112395000Y-98425000D03*
X101600000Y-83820000D03*
X111760000Y-99060000D03*
X109855000Y-105410000D03*
X104775000Y-110490000D03*
X109093000Y-92710000D03*
X146050000Y-100330000D03*
X132080000Y-72390000D03*
X146050000Y-97790000D03*
X128270000Y-83185000D03*
X148590000Y-92710000D03*
X127000000Y-83820000D03*
X147320000Y-90170000D03*
X134493000Y-92710000D03*
X153035000Y-112395000D03*
X153670000Y-72390000D03*
X152400000Y-111760000D03*
X149860000Y-83185000D03*
X157480000Y-105410000D03*
X151765000Y-111125000D03*
X159385000Y-98425000D03*
X148590000Y-83820000D03*
X156210000Y-105410000D03*
X151130000Y-110490000D03*
X158750000Y-99060000D03*
X156083000Y-92710000D03*
X193040000Y-100330000D03*
X179070000Y-72390000D03*
X193040000Y-97790000D03*
X175260000Y-83185000D03*
X195580000Y-92710000D03*
X173990000Y-83820000D03*
X194310000Y-90170000D03*
X181483000Y-92710000D03*
X200025000Y-112395000D03*
X200660000Y-72390000D03*
X199390000Y-111760000D03*
X196850000Y-83185000D03*
X198755000Y-111125000D03*
X206375000Y-98425000D03*
X204470000Y-105410000D03*
X195580000Y-83820000D03*
X203200000Y-105410000D03*
X205740000Y-99060000D03*
X198120000Y-110490000D03*
X203073000Y-92710000D03*
X116840000Y-128270000D03*
X114300000Y-128270000D03*
D30*
X216535000Y-106085000D02*
X212685000Y-106085000D01*
X210185000Y-108585000D02*
X210185000Y-120015000D01*
X212685000Y-106085000D02*
X210185000Y-108585000D01*
X203200000Y-132080000D02*
X207010000Y-132080000D01*
X210185000Y-128905000D02*
X210185000Y-120015000D01*
X207010000Y-132080000D02*
X210185000Y-128905000D01*
X203200000Y-132080000D02*
X204470000Y-133350000D01*
X206375000Y-135255000D02*
X206375000Y-136525000D01*
X204470000Y-133350000D02*
X206375000Y-135255000D01*
D31*
X194310000Y-136525000D02*
X194310000Y-135890000D01*
X194310000Y-135890000D02*
X198120000Y-132080000D01*
D32*
X123190000Y-67310000D02*
X121285000Y-69215000D01*
X121285000Y-86995000D02*
X123190000Y-88900000D01*
X121285000Y-69215000D02*
X121285000Y-86995000D01*
X123190000Y-64770000D02*
X123190000Y-55880000D01*
X123190000Y-74930000D02*
X123190000Y-83185000D01*
X123190000Y-72390000D02*
X125730000Y-69850000D01*
X125730000Y-69850000D02*
X125730000Y-57150000D01*
X125730000Y-57150000D02*
X127000000Y-55880000D01*
X170180000Y-88265000D02*
X168275000Y-86360000D01*
X168275000Y-69215000D02*
X170180000Y-67310000D01*
X168275000Y-86360000D02*
X168275000Y-69215000D01*
X170180000Y-64770000D02*
X170180000Y-55880000D01*
X170180000Y-74930000D02*
X170180000Y-82550000D01*
X170180000Y-72390000D02*
X172720000Y-69850000D01*
X172720000Y-69850000D02*
X172720000Y-57150000D01*
X172720000Y-57150000D02*
X173990000Y-55880000D01*
D31*
X172085000Y-89535000D02*
X170180000Y-89535000D01*
X173355000Y-90805000D02*
X172085000Y-89535000D01*
X173355000Y-116205000D02*
X173355000Y-90805000D01*
X123190000Y-90170000D02*
X125095000Y-90170000D01*
X177165000Y-125095000D02*
X177165000Y-126365000D01*
X173355000Y-121285000D02*
X177165000Y-125095000D01*
X173355000Y-117475000D02*
X173355000Y-121285000D01*
X172720000Y-116840000D02*
X173355000Y-117475000D01*
X172720000Y-111125000D02*
X172720000Y-116840000D01*
X171450000Y-109855000D02*
X172720000Y-111125000D01*
X156845000Y-109855000D02*
X171450000Y-109855000D01*
X131445000Y-109855000D02*
X145415000Y-109855000D01*
X128905000Y-107315000D02*
X131445000Y-109855000D01*
X128905000Y-100965000D02*
X128905000Y-107315000D01*
X126365000Y-98425000D02*
X128905000Y-100965000D01*
X126365000Y-91440000D02*
X126365000Y-98425000D01*
X125095000Y-90170000D02*
X126365000Y-91440000D01*
X170180000Y-83820000D02*
X172720000Y-83820000D01*
X174625000Y-116840000D02*
X174625000Y-118745000D01*
X173990000Y-116205000D02*
X174625000Y-116840000D01*
X173990000Y-85090000D02*
X173990000Y-116205000D01*
X172720000Y-83820000D02*
X173990000Y-85090000D01*
X131445000Y-108585000D02*
X145415000Y-108585000D01*
X129540000Y-106680000D02*
X131445000Y-108585000D01*
X129540000Y-100330000D02*
X129540000Y-106680000D01*
X127000000Y-97790000D02*
X129540000Y-100330000D01*
X127000000Y-85725000D02*
X127000000Y-97790000D01*
X125730000Y-84455000D02*
X127000000Y-85725000D01*
X123190000Y-84455000D02*
X125730000Y-84455000D01*
X179705000Y-117475000D02*
X179705000Y-118745000D01*
X179070000Y-116840000D02*
X179705000Y-117475000D01*
X177800000Y-116840000D02*
X179070000Y-116840000D01*
X174625000Y-113665000D02*
X177800000Y-116840000D01*
X174625000Y-108585000D02*
X174625000Y-113665000D01*
X158115000Y-108585000D02*
X172720000Y-108585000D01*
X120650000Y-136525000D02*
X120650000Y-131445000D01*
X118745000Y-129540000D02*
X120650000Y-131445000D01*
X116840000Y-129540000D02*
X118745000Y-129540000D01*
X111760000Y-124460000D02*
X116840000Y-129540000D01*
X107950000Y-124460000D02*
X111760000Y-124460000D01*
X85090000Y-121285000D02*
X87630000Y-121285000D01*
X88900000Y-124460000D02*
X88900000Y-128270000D01*
X88900000Y-128270000D02*
X90805000Y-130175000D01*
X90805000Y-130175000D02*
X118110000Y-130175000D01*
X118110000Y-130175000D02*
X120015000Y-132080000D01*
X88900000Y-122555000D02*
X88900000Y-124460000D01*
X87630000Y-121285000D02*
X88900000Y-122555000D01*
X85090000Y-118745000D02*
X88265000Y-118745000D01*
X89535000Y-121920000D02*
X89535000Y-127635000D01*
X89535000Y-127635000D02*
X91440000Y-129540000D01*
X91440000Y-129540000D02*
X115570000Y-129540000D01*
X120015000Y-129540000D02*
X125730000Y-135255000D01*
X125730000Y-135255000D02*
X125730000Y-136525000D01*
X89535000Y-120015000D02*
X89535000Y-121920000D01*
X88265000Y-118745000D02*
X89535000Y-120015000D01*
X123190000Y-113665000D02*
X123190000Y-118745000D01*
X123190000Y-118745000D02*
X123190000Y-120015000D01*
X123190000Y-120015000D02*
X125095000Y-121920000D01*
X146050000Y-121920000D02*
X147320000Y-123190000D01*
X125095000Y-121920000D02*
X146050000Y-121920000D01*
X171450000Y-123190000D02*
X153670000Y-123190000D01*
X193040000Y-126365000D02*
X193040000Y-125095000D01*
X169545000Y-125095000D02*
X169545000Y-126365000D01*
X171450000Y-123190000D02*
X169545000Y-125095000D01*
X173990000Y-123190000D02*
X171450000Y-123190000D01*
X191135000Y-123190000D02*
X176530000Y-123190000D01*
X193040000Y-125095000D02*
X191135000Y-123190000D01*
X121285000Y-121920000D02*
X123190000Y-120015000D01*
X106045000Y-121920000D02*
X121285000Y-121920000D01*
X88265000Y-127000000D02*
X88265000Y-124460000D01*
X88265000Y-127000000D02*
X88265000Y-128905000D01*
X88265000Y-128905000D02*
X90170000Y-130810000D01*
X90170000Y-130810000D02*
X117475000Y-130810000D01*
X122555000Y-130810000D02*
X123825000Y-130810000D01*
X123825000Y-130810000D02*
X128270000Y-135255000D01*
X128270000Y-136525000D02*
X128270000Y-135255000D01*
X87630000Y-123825000D02*
X85090000Y-123825000D01*
X88265000Y-124460000D02*
X87630000Y-123825000D01*
X120650000Y-113665000D02*
X120650000Y-118745000D01*
X120650000Y-118745000D02*
X120650000Y-120015000D01*
X168275000Y-123825000D02*
X154305000Y-123825000D01*
X143510000Y-127635000D02*
X143510000Y-126365000D01*
X144145000Y-128270000D02*
X143510000Y-127635000D01*
X146685000Y-128270000D02*
X144145000Y-128270000D01*
X147320000Y-127635000D02*
X146685000Y-128270000D01*
X190500000Y-126365000D02*
X190500000Y-125095000D01*
X167005000Y-125095000D02*
X167005000Y-126365000D01*
X168275000Y-123825000D02*
X167005000Y-125095000D01*
X169545000Y-123825000D02*
X168275000Y-123825000D01*
X189230000Y-123825000D02*
X177165000Y-123825000D01*
X190500000Y-125095000D02*
X189230000Y-123825000D01*
X105410000Y-121285000D02*
X119380000Y-121285000D01*
X119380000Y-121285000D02*
X120650000Y-120015000D01*
X85090000Y-126365000D02*
X86360000Y-126365000D01*
X89535000Y-131445000D02*
X118110000Y-131445000D01*
X125730000Y-131445000D02*
X127000000Y-131445000D01*
X127000000Y-131445000D02*
X130810000Y-135255000D01*
X130810000Y-135255000D02*
X130810000Y-136525000D01*
X87630000Y-129540000D02*
X89535000Y-131445000D01*
X87630000Y-127635000D02*
X87630000Y-129540000D01*
X86360000Y-126365000D02*
X87630000Y-127635000D01*
X85090000Y-116205000D02*
X88900000Y-116205000D01*
X90170000Y-120015000D02*
X90170000Y-127000000D01*
X90170000Y-127000000D02*
X92075000Y-128905000D01*
X92075000Y-128905000D02*
X114935000Y-128905000D01*
X117475000Y-128905000D02*
X128270000Y-128905000D01*
X128270000Y-128905000D02*
X133350000Y-133985000D01*
X133350000Y-133985000D02*
X133350000Y-136525000D01*
X90170000Y-117475000D02*
X90170000Y-120015000D01*
X88900000Y-116205000D02*
X90170000Y-117475000D01*
D32*
X94650000Y-65350000D02*
X94650000Y-65440000D01*
X94650000Y-65440000D02*
X97790000Y-68580000D01*
X97790000Y-68580000D02*
X97790000Y-102870000D01*
X97790000Y-102870000D02*
X95250000Y-105410000D01*
X95250000Y-105410000D02*
X92710000Y-105410000D01*
X85090000Y-87630000D02*
X83820000Y-86360000D01*
X83820000Y-81280000D02*
X80010000Y-77470000D01*
X80010000Y-77470000D02*
X80010000Y-73025000D01*
X80010000Y-73025000D02*
X83150000Y-69850000D01*
X83820000Y-86360000D02*
X83820000Y-81280000D01*
X94650000Y-69850000D02*
X95250000Y-69850000D01*
X95250000Y-69850000D02*
X96520000Y-71120000D01*
X96520000Y-71120000D02*
X96520000Y-101600000D01*
X96520000Y-101600000D02*
X95250000Y-102870000D01*
X95250000Y-102870000D02*
X92710000Y-102870000D01*
X81280000Y-73025000D02*
X81280000Y-76835000D01*
X85090000Y-71120000D02*
X85090000Y-68580000D01*
X86995000Y-88900000D02*
X86995000Y-86995000D01*
X86995000Y-86995000D02*
X85090000Y-85090000D01*
X81280000Y-73025000D02*
X82550000Y-71755000D01*
X82550000Y-71755000D02*
X84455000Y-71755000D01*
X84455000Y-71755000D02*
X85090000Y-71120000D01*
X85725000Y-90170000D02*
X86995000Y-88900000D01*
X85090000Y-68580000D02*
X91820000Y-61850000D01*
X85090000Y-85090000D02*
X85090000Y-80645000D01*
X81280000Y-76835000D02*
X85090000Y-80645000D01*
X91820000Y-61850000D02*
X92900000Y-61850000D01*
X85090000Y-90170000D02*
X85725000Y-90170000D01*
D31*
X99695000Y-100965000D02*
X99695000Y-113665000D01*
X99060000Y-100330000D02*
X99695000Y-100965000D01*
X99695000Y-113665000D02*
X103505000Y-117475000D01*
X103505000Y-117475000D02*
X103505000Y-120650000D01*
X103505000Y-120650000D02*
X107315000Y-124460000D01*
X107315000Y-126365000D02*
X107315000Y-124460000D01*
D32*
X86995000Y-74295000D02*
X86995000Y-85471000D01*
X85090000Y-72390000D02*
X86995000Y-74295000D01*
X85090000Y-92710000D02*
X87884000Y-89916000D01*
X87884000Y-86360000D02*
X87884000Y-89916000D01*
X86995000Y-85471000D02*
X87884000Y-86360000D01*
D31*
X104775000Y-116840000D02*
X104775000Y-118745000D01*
X100965000Y-113030000D02*
X104775000Y-116840000D01*
X100965000Y-99695000D02*
X100965000Y-113030000D01*
X99060000Y-97790000D02*
X100965000Y-99695000D01*
D32*
X81280000Y-83185000D02*
X82550000Y-84455000D01*
X82550000Y-84455000D02*
X82550000Y-95250000D01*
X82550000Y-95250000D02*
X85090000Y-97790000D01*
D31*
X109855000Y-118745000D02*
X109855000Y-116840000D01*
X101600000Y-97155000D02*
X101600000Y-92710000D01*
X103505000Y-99060000D02*
X101600000Y-97155000D01*
X103505000Y-110490000D02*
X103505000Y-99060000D01*
X109855000Y-116840000D02*
X103505000Y-110490000D01*
D32*
X81280000Y-96520000D02*
X85090000Y-100330000D01*
X81280000Y-85090000D02*
X81280000Y-96520000D01*
X80010000Y-83820000D02*
X81280000Y-85090000D01*
X85090000Y-100330000D02*
X84455000Y-100330000D01*
D31*
X107315000Y-116840000D02*
X107315000Y-118745000D01*
X102235000Y-111760000D02*
X107315000Y-116840000D01*
X102235000Y-99695000D02*
X102235000Y-111760000D01*
X100330000Y-97790000D02*
X102235000Y-99695000D01*
X100330000Y-90170000D02*
X100330000Y-97790000D01*
D32*
X85090000Y-102870000D02*
X86614000Y-102870000D01*
X86614000Y-102870000D02*
X87503000Y-101981000D01*
X87503000Y-101981000D02*
X87503000Y-92710000D01*
X94650000Y-74350000D02*
X93290000Y-74350000D01*
X88900000Y-102235000D02*
X85090000Y-105410000D01*
X88900000Y-85725000D02*
X88900000Y-102235000D01*
X90805000Y-83185000D02*
X88900000Y-85725000D01*
X90805000Y-76835000D02*
X90805000Y-83185000D01*
X93290000Y-74350000D02*
X90805000Y-76835000D01*
X116840000Y-105410000D02*
X114300000Y-105410000D01*
X119380000Y-102870000D02*
X116840000Y-105410000D01*
X119380000Y-68580000D02*
X119380000Y-102870000D01*
X116240000Y-65440000D02*
X119380000Y-68580000D01*
X116240000Y-65350000D02*
X116240000Y-65440000D01*
X105410000Y-86360000D02*
X105410000Y-81280000D01*
X101600000Y-73025000D02*
X104740000Y-69850000D01*
X101600000Y-77470000D02*
X101600000Y-73025000D01*
X105410000Y-81280000D02*
X101600000Y-77470000D01*
X106680000Y-87630000D02*
X105410000Y-86360000D01*
X116840000Y-102870000D02*
X114300000Y-102870000D01*
X118110000Y-101600000D02*
X116840000Y-102870000D01*
X118110000Y-71120000D02*
X118110000Y-101600000D01*
X116840000Y-69850000D02*
X118110000Y-71120000D01*
X116240000Y-69850000D02*
X116840000Y-69850000D01*
X106680000Y-90170000D02*
X107315000Y-90170000D01*
X113410000Y-61850000D02*
X114490000Y-61850000D01*
X102870000Y-76835000D02*
X106680000Y-80645000D01*
X106680000Y-80645000D02*
X106680000Y-85090000D01*
X106680000Y-68580000D02*
X113410000Y-61850000D01*
X107315000Y-90170000D02*
X108585000Y-88900000D01*
X106045000Y-71755000D02*
X106680000Y-71120000D01*
X104140000Y-71755000D02*
X106045000Y-71755000D01*
X102870000Y-73025000D02*
X104140000Y-71755000D01*
X108585000Y-86995000D02*
X106680000Y-85090000D01*
X108585000Y-88900000D02*
X108585000Y-86995000D01*
X106680000Y-71120000D02*
X106680000Y-68580000D01*
X102870000Y-73025000D02*
X102870000Y-76835000D01*
D31*
X112395000Y-102235000D02*
X114300000Y-100330000D01*
X112395000Y-106680000D02*
X112395000Y-102235000D01*
X106680000Y-112395000D02*
X112395000Y-106680000D01*
D32*
X108585000Y-74295000D02*
X108585000Y-85471000D01*
X108585000Y-85471000D02*
X109474000Y-86360000D01*
X109474000Y-86360000D02*
X109474000Y-89916000D01*
X106680000Y-92710000D02*
X109474000Y-89916000D01*
X106680000Y-72390000D02*
X108585000Y-74295000D01*
D31*
X114300000Y-97790000D02*
X111760000Y-100330000D01*
X111760000Y-106045000D02*
X106045000Y-111760000D01*
X111760000Y-100330000D02*
X111760000Y-106045000D01*
D32*
X104140000Y-95250000D02*
X106680000Y-97790000D01*
X104140000Y-84455000D02*
X104140000Y-95250000D01*
X102870000Y-83185000D02*
X104140000Y-84455000D01*
D31*
X114300000Y-92710000D02*
X112395000Y-94615000D01*
X111125000Y-105410000D02*
X105410000Y-111125000D01*
X112395000Y-94615000D02*
X112395000Y-98425000D01*
D32*
X106680000Y-100330000D02*
X106045000Y-100330000D01*
X101600000Y-83820000D02*
X102870000Y-85090000D01*
X102870000Y-85090000D02*
X102870000Y-96520000D01*
X102870000Y-96520000D02*
X106680000Y-100330000D01*
D31*
X114300000Y-90170000D02*
X113665000Y-90170000D01*
X113665000Y-90170000D02*
X111760000Y-92075000D01*
X111760000Y-92075000D02*
X111760000Y-99060000D01*
X109855000Y-105410000D02*
X104775000Y-110490000D01*
D32*
X109093000Y-101981000D02*
X109093000Y-92710000D01*
X108204000Y-102870000D02*
X109093000Y-101981000D01*
X106680000Y-102870000D02*
X108204000Y-102870000D01*
X114880000Y-74350000D02*
X112395000Y-76835000D01*
X112395000Y-76835000D02*
X112395000Y-83185000D01*
X112395000Y-83185000D02*
X110490000Y-85725000D01*
X110490000Y-85725000D02*
X110490000Y-102235000D01*
X110490000Y-102235000D02*
X106680000Y-105410000D01*
X116240000Y-74350000D02*
X114880000Y-74350000D01*
X142240000Y-105410000D02*
X139700000Y-105410000D01*
X144780000Y-102870000D02*
X142240000Y-105410000D01*
X144780000Y-68580000D02*
X144780000Y-102870000D01*
X141640000Y-65440000D02*
X144780000Y-68580000D01*
X141640000Y-65350000D02*
X141640000Y-65440000D01*
X130810000Y-86360000D02*
X130810000Y-81280000D01*
X127000000Y-73025000D02*
X130140000Y-69850000D01*
X127000000Y-77470000D02*
X127000000Y-73025000D01*
X130810000Y-81280000D02*
X127000000Y-77470000D01*
X132080000Y-87630000D02*
X130810000Y-86360000D01*
X142240000Y-102870000D02*
X139700000Y-102870000D01*
X143510000Y-101600000D02*
X142240000Y-102870000D01*
X143510000Y-71120000D02*
X143510000Y-101600000D01*
X142240000Y-69850000D02*
X143510000Y-71120000D01*
X141640000Y-69850000D02*
X142240000Y-69850000D01*
X132080000Y-90170000D02*
X132715000Y-90170000D01*
X138810000Y-61850000D02*
X139890000Y-61850000D01*
X128270000Y-76835000D02*
X132080000Y-80645000D01*
X132080000Y-80645000D02*
X132080000Y-85090000D01*
X132080000Y-68580000D02*
X138810000Y-61850000D01*
X132715000Y-90170000D02*
X133985000Y-88900000D01*
X131445000Y-71755000D02*
X132080000Y-71120000D01*
X129540000Y-71755000D02*
X131445000Y-71755000D01*
X128270000Y-73025000D02*
X129540000Y-71755000D01*
X133985000Y-86995000D02*
X132080000Y-85090000D01*
X133985000Y-88900000D02*
X133985000Y-86995000D01*
X132080000Y-71120000D02*
X132080000Y-68580000D01*
X128270000Y-73025000D02*
X128270000Y-76835000D01*
D31*
X146050000Y-100330000D02*
X146050000Y-113665000D01*
X146050000Y-113665000D02*
X149860000Y-117475000D01*
X149860000Y-117475000D02*
X149860000Y-120650000D01*
X149860000Y-120650000D02*
X153670000Y-124460000D01*
X153670000Y-124460000D02*
X153670000Y-126365000D01*
D32*
X133985000Y-74295000D02*
X133985000Y-85471000D01*
X133985000Y-85471000D02*
X134874000Y-86360000D01*
X134874000Y-86360000D02*
X134874000Y-89916000D01*
X132080000Y-92710000D02*
X134874000Y-89916000D01*
X132080000Y-72390000D02*
X133985000Y-74295000D01*
D31*
X146050000Y-97790000D02*
X147320000Y-99060000D01*
X151130000Y-116840000D02*
X151130000Y-118745000D01*
X147320000Y-113030000D02*
X151130000Y-116840000D01*
X147320000Y-99060000D02*
X147320000Y-113030000D01*
D32*
X129540000Y-95250000D02*
X132080000Y-97790000D01*
X129540000Y-84455000D02*
X129540000Y-95250000D01*
X128270000Y-83185000D02*
X129540000Y-84455000D01*
D31*
X156210000Y-116840000D02*
X156210000Y-118745000D01*
X149860000Y-110490000D02*
X149860000Y-99060000D01*
X156210000Y-116840000D02*
X149860000Y-110490000D01*
X148590000Y-97790000D02*
X149860000Y-99060000D01*
X148590000Y-92710000D02*
X148590000Y-97790000D01*
D32*
X132080000Y-100330000D02*
X131445000Y-100330000D01*
X127000000Y-83820000D02*
X128270000Y-85090000D01*
X128270000Y-85090000D02*
X128270000Y-96520000D01*
X128270000Y-96520000D02*
X132080000Y-100330000D01*
D31*
X153670000Y-116840000D02*
X153670000Y-118745000D01*
X148590000Y-111760000D02*
X153670000Y-116840000D01*
X148590000Y-99060000D02*
X148590000Y-111760000D01*
X147320000Y-97790000D02*
X148590000Y-99060000D01*
X147320000Y-90170000D02*
X147320000Y-97790000D01*
D32*
X134493000Y-101981000D02*
X134493000Y-92710000D01*
X133604000Y-102870000D02*
X134493000Y-101981000D01*
X132080000Y-102870000D02*
X133604000Y-102870000D01*
X140280000Y-74350000D02*
X137795000Y-76835000D01*
X137795000Y-76835000D02*
X137795000Y-83185000D01*
X137795000Y-83185000D02*
X135890000Y-85725000D01*
X135890000Y-85725000D02*
X135890000Y-102235000D01*
X135890000Y-102235000D02*
X132080000Y-105410000D01*
X141640000Y-74350000D02*
X140280000Y-74350000D01*
X163230000Y-65440000D02*
X166370000Y-68580000D01*
X163230000Y-65350000D02*
X163230000Y-65440000D01*
X166370000Y-68580000D02*
X166370000Y-102870000D01*
X166370000Y-102870000D02*
X163830000Y-105410000D01*
X163830000Y-105410000D02*
X161290000Y-105410000D01*
X152400000Y-86360000D02*
X152400000Y-81280000D01*
X152400000Y-81280000D02*
X148590000Y-77470000D01*
X153670000Y-87630000D02*
X152400000Y-86360000D01*
X148590000Y-77470000D02*
X148590000Y-73025000D01*
X148590000Y-73025000D02*
X151730000Y-69850000D01*
X163830000Y-69850000D02*
X165100000Y-71120000D01*
X163230000Y-69850000D02*
X163830000Y-69850000D01*
X165100000Y-71120000D02*
X165100000Y-101600000D01*
X165100000Y-101600000D02*
X163830000Y-102870000D01*
X163830000Y-102870000D02*
X161290000Y-102870000D01*
X153670000Y-90170000D02*
X154305000Y-90170000D01*
X153670000Y-85090000D02*
X153670000Y-80645000D01*
X154305000Y-90170000D02*
X155575000Y-88900000D01*
X155575000Y-86995000D02*
X153670000Y-85090000D01*
X155575000Y-88900000D02*
X155575000Y-86995000D01*
X160400000Y-61850000D02*
X161480000Y-61850000D01*
X153670000Y-68580000D02*
X160400000Y-61850000D01*
X153670000Y-71120000D02*
X153670000Y-68580000D01*
X149860000Y-76835000D02*
X153670000Y-80645000D01*
X153035000Y-71755000D02*
X153670000Y-71120000D01*
X151130000Y-71755000D02*
X153035000Y-71755000D01*
X149860000Y-73025000D02*
X151130000Y-71755000D01*
X149860000Y-73025000D02*
X149860000Y-76835000D01*
D31*
X153035000Y-112395000D02*
X159385000Y-106045000D01*
X159385000Y-102235000D02*
X161290000Y-100330000D01*
X159385000Y-106045000D02*
X159385000Y-102235000D01*
D32*
X155575000Y-85471000D02*
X156464000Y-86360000D01*
X156464000Y-86360000D02*
X156464000Y-89916000D01*
X153670000Y-92710000D02*
X156464000Y-89916000D01*
X155575000Y-74295000D02*
X155575000Y-85471000D01*
X153670000Y-72390000D02*
X155575000Y-74295000D01*
D31*
X152400000Y-111760000D02*
X158750000Y-105410000D01*
X158750000Y-100330000D02*
X161290000Y-97790000D01*
X158750000Y-105410000D02*
X158750000Y-100330000D01*
D32*
X151130000Y-95250000D02*
X153670000Y-97790000D01*
X151130000Y-84455000D02*
X151130000Y-95250000D01*
X149860000Y-83185000D02*
X151130000Y-84455000D01*
D31*
X157480000Y-105410000D02*
X151765000Y-111125000D01*
X159385000Y-93980000D02*
X160655000Y-92710000D01*
X159385000Y-98425000D02*
X159385000Y-93980000D01*
X160655000Y-92710000D02*
X161290000Y-92710000D01*
D32*
X153670000Y-100330000D02*
X153035000Y-100330000D01*
X149860000Y-96520000D02*
X153670000Y-100330000D01*
X149860000Y-85090000D02*
X149860000Y-96520000D01*
X148590000Y-83820000D02*
X149860000Y-85090000D01*
D31*
X156210000Y-105410000D02*
X151130000Y-110490000D01*
X158750000Y-92075000D02*
X160655000Y-90170000D01*
X158750000Y-99060000D02*
X158750000Y-92075000D01*
X160655000Y-90170000D02*
X161290000Y-90170000D01*
D32*
X153670000Y-102870000D02*
X155194000Y-102870000D01*
X155194000Y-102870000D02*
X156083000Y-101981000D01*
X156083000Y-101981000D02*
X156083000Y-92710000D01*
X157480000Y-102235000D02*
X153670000Y-105410000D01*
X157480000Y-85725000D02*
X157480000Y-102235000D01*
X159385000Y-83185000D02*
X157480000Y-85725000D01*
X159385000Y-76835000D02*
X159385000Y-83185000D01*
X161870000Y-74350000D02*
X159385000Y-76835000D01*
X163230000Y-74350000D02*
X161870000Y-74350000D01*
X188630000Y-65440000D02*
X191770000Y-68580000D01*
X188630000Y-65350000D02*
X188630000Y-65440000D01*
X191770000Y-68580000D02*
X191770000Y-102870000D01*
X191770000Y-102870000D02*
X189230000Y-105410000D01*
X189230000Y-105410000D02*
X186690000Y-105410000D01*
X177800000Y-86360000D02*
X177800000Y-81280000D01*
X177800000Y-81280000D02*
X173990000Y-77470000D01*
X179070000Y-87630000D02*
X177800000Y-86360000D01*
X173990000Y-77470000D02*
X173990000Y-73025000D01*
X173990000Y-73025000D02*
X177130000Y-69850000D01*
X188630000Y-69850000D02*
X189230000Y-69850000D01*
X189230000Y-69850000D02*
X190500000Y-71120000D01*
X190500000Y-71120000D02*
X190500000Y-101600000D01*
X190500000Y-101600000D02*
X189230000Y-102870000D01*
X189230000Y-102870000D02*
X186690000Y-102870000D01*
X179070000Y-90170000D02*
X179705000Y-90170000D01*
X179070000Y-85090000D02*
X179070000Y-80645000D01*
X179705000Y-90170000D02*
X180975000Y-88900000D01*
X180975000Y-86995000D02*
X179070000Y-85090000D01*
X180975000Y-88900000D02*
X180975000Y-86995000D01*
X185800000Y-61850000D02*
X186880000Y-61850000D01*
X179070000Y-68580000D02*
X185800000Y-61850000D01*
X179070000Y-71120000D02*
X179070000Y-68580000D01*
X175260000Y-76835000D02*
X179070000Y-80645000D01*
X178435000Y-71755000D02*
X179070000Y-71120000D01*
X176530000Y-71755000D02*
X178435000Y-71755000D01*
X175260000Y-73025000D02*
X176530000Y-71755000D01*
X175260000Y-73025000D02*
X175260000Y-76835000D01*
D31*
X196850000Y-117475000D02*
X196850000Y-120650000D01*
X193040000Y-100330000D02*
X193040000Y-113665000D01*
X193040000Y-113665000D02*
X196850000Y-117475000D01*
X200660000Y-124460000D02*
X200660000Y-126365000D01*
X196850000Y-120650000D02*
X200660000Y-124460000D01*
D32*
X180975000Y-85471000D02*
X181864000Y-86360000D01*
X181864000Y-86360000D02*
X181864000Y-89916000D01*
X179070000Y-92710000D02*
X181864000Y-89916000D01*
X180975000Y-74295000D02*
X180975000Y-85471000D01*
X179070000Y-72390000D02*
X180975000Y-74295000D01*
D31*
X198120000Y-118745000D02*
X198120000Y-116840000D01*
X193040000Y-97790000D02*
X194310000Y-99060000D01*
X194310000Y-113030000D02*
X198120000Y-116840000D01*
X194310000Y-99060000D02*
X194310000Y-113030000D01*
D32*
X176530000Y-95250000D02*
X179070000Y-97790000D01*
X176530000Y-84455000D02*
X176530000Y-95250000D01*
X175260000Y-83185000D02*
X176530000Y-84455000D01*
D31*
X196850000Y-99060000D02*
X196850000Y-110490000D01*
X195580000Y-97790000D02*
X196850000Y-99060000D01*
X195580000Y-92710000D02*
X195580000Y-97790000D01*
X203200000Y-116840000D02*
X203200000Y-118745000D01*
X196850000Y-110490000D02*
X203200000Y-116840000D01*
D32*
X179070000Y-100330000D02*
X178435000Y-100330000D01*
X175260000Y-96520000D02*
X179070000Y-100330000D01*
X175260000Y-85090000D02*
X175260000Y-96520000D01*
X173990000Y-83820000D02*
X175260000Y-85090000D01*
D31*
X200660000Y-118745000D02*
X200660000Y-116840000D01*
X195580000Y-111760000D02*
X200660000Y-116840000D01*
X195580000Y-99060000D02*
X195580000Y-111760000D01*
X194310000Y-97790000D02*
X195580000Y-99060000D01*
X194310000Y-90170000D02*
X194310000Y-97790000D01*
D32*
X179070000Y-102870000D02*
X180594000Y-102870000D01*
X180594000Y-102870000D02*
X181483000Y-101981000D01*
X181483000Y-101981000D02*
X181483000Y-92710000D01*
X182880000Y-102235000D02*
X179070000Y-105410000D01*
X182880000Y-85725000D02*
X182880000Y-102235000D01*
X184785000Y-83185000D02*
X182880000Y-85725000D01*
X184785000Y-76835000D02*
X184785000Y-83185000D01*
X187270000Y-74350000D02*
X184785000Y-76835000D01*
X188630000Y-74350000D02*
X187270000Y-74350000D01*
X210220000Y-65440000D02*
X213360000Y-68580000D01*
X210220000Y-65350000D02*
X210220000Y-65440000D01*
X213360000Y-68580000D02*
X213360000Y-102870000D01*
X213360000Y-102870000D02*
X210820000Y-105410000D01*
X210820000Y-105410000D02*
X208280000Y-105410000D01*
X199390000Y-86360000D02*
X199390000Y-81280000D01*
X199390000Y-81280000D02*
X195580000Y-77470000D01*
X200660000Y-87630000D02*
X199390000Y-86360000D01*
X195580000Y-77470000D02*
X195580000Y-73025000D01*
X195580000Y-73025000D02*
X198720000Y-69850000D01*
X210820000Y-69850000D02*
X212090000Y-71120000D01*
X210220000Y-69850000D02*
X210820000Y-69850000D01*
X212090000Y-71120000D02*
X212090000Y-101600000D01*
X212090000Y-101600000D02*
X210820000Y-102870000D01*
X210820000Y-102870000D02*
X208280000Y-102870000D01*
X200660000Y-90170000D02*
X201295000Y-90170000D01*
X200660000Y-85090000D02*
X200660000Y-80645000D01*
X201295000Y-90170000D02*
X202565000Y-88900000D01*
X202565000Y-86995000D02*
X200660000Y-85090000D01*
X202565000Y-88900000D02*
X202565000Y-86995000D01*
X207390000Y-61850000D02*
X208470000Y-61850000D01*
X200660000Y-68580000D02*
X207390000Y-61850000D01*
X200660000Y-71120000D02*
X200660000Y-68580000D01*
X196850000Y-76835000D02*
X200660000Y-80645000D01*
X200025000Y-71755000D02*
X200660000Y-71120000D01*
X198120000Y-71755000D02*
X200025000Y-71755000D01*
X196850000Y-73025000D02*
X198120000Y-71755000D01*
X196850000Y-73025000D02*
X196850000Y-76835000D01*
D31*
X200025000Y-112395000D02*
X206375000Y-106045000D01*
X206375000Y-102235000D02*
X208280000Y-100330000D01*
X206375000Y-106045000D02*
X206375000Y-102235000D01*
D32*
X202565000Y-85471000D02*
X203454000Y-86360000D01*
X203454000Y-86360000D02*
X203454000Y-89916000D01*
X200660000Y-92710000D02*
X203454000Y-89916000D01*
X202565000Y-74295000D02*
X202565000Y-85471000D01*
X200660000Y-72390000D02*
X202565000Y-74295000D01*
D31*
X199390000Y-111760000D02*
X205740000Y-105410000D01*
X208280000Y-97790000D02*
X205740000Y-100330000D01*
X205740000Y-105410000D02*
X205740000Y-100330000D01*
D32*
X198120000Y-95250000D02*
X200660000Y-97790000D01*
X198120000Y-84455000D02*
X198120000Y-95250000D01*
X196850000Y-83185000D02*
X198120000Y-84455000D01*
D31*
X206375000Y-93980000D02*
X207645000Y-92710000D01*
X206375000Y-98425000D02*
X206375000Y-93980000D01*
X198755000Y-111125000D02*
X204470000Y-105410000D01*
X207645000Y-92710000D02*
X208280000Y-92710000D01*
D32*
X200660000Y-100330000D02*
X200025000Y-100330000D01*
X196850000Y-96520000D02*
X200660000Y-100330000D01*
X196850000Y-85090000D02*
X196850000Y-96520000D01*
X195580000Y-83820000D02*
X196850000Y-85090000D01*
D31*
X207645000Y-90170000D02*
X205740000Y-92075000D01*
X205740000Y-99060000D02*
X205740000Y-92075000D01*
X203200000Y-105410000D02*
X198120000Y-110490000D01*
X207645000Y-90170000D02*
X208280000Y-90170000D01*
D32*
X200660000Y-102870000D02*
X202184000Y-102870000D01*
X202184000Y-102870000D02*
X203073000Y-101981000D01*
X203073000Y-101981000D02*
X203073000Y-92710000D01*
X204470000Y-102235000D02*
X200660000Y-105410000D01*
X204470000Y-85725000D02*
X204470000Y-102235000D01*
X206375000Y-83185000D02*
X204470000Y-85725000D01*
X206375000Y-76835000D02*
X206375000Y-83185000D01*
X208860000Y-74350000D02*
X206375000Y-76835000D01*
X210220000Y-74350000D02*
X208860000Y-74350000D01*
D31*
X174625000Y-126365000D02*
X174625000Y-127635000D01*
X185420000Y-127635000D02*
X185420000Y-126365000D01*
X184785000Y-128270000D02*
X185420000Y-127635000D01*
X175260000Y-128270000D02*
X184785000Y-128270000D01*
X174625000Y-127635000D02*
X175260000Y-128270000D01*
X92075000Y-126365000D02*
X92075000Y-127635000D01*
X151130000Y-125095000D02*
X151130000Y-126365000D01*
X150495000Y-124460000D02*
X151130000Y-125095000D01*
X136525000Y-124460000D02*
X150495000Y-124460000D01*
X132080000Y-128270000D02*
X136525000Y-124460000D01*
X116840000Y-128270000D02*
X132080000Y-128270000D01*
X92710000Y-128270000D02*
X114300000Y-128270000D01*
X92075000Y-127635000D02*
X92710000Y-128270000D01*
X138430000Y-126365000D02*
X138430000Y-127635000D01*
X198120000Y-128270000D02*
X198120000Y-126365000D01*
X197485000Y-128905000D02*
X198120000Y-128270000D01*
X139700000Y-128905000D02*
X197485000Y-128905000D01*
X138430000Y-127635000D02*
X139700000Y-128905000D01*
X125730000Y-113665000D02*
X125730000Y-109260000D01*
X125730000Y-109260000D02*
X125690000Y-109220000D01*
X128270000Y-113665000D02*
X128270000Y-109300000D01*
X128270000Y-109300000D02*
X128190000Y-109220000D01*
D30*
X144145000Y-45720000D02*
X144145000Y-49530000D01*
X157480000Y-45720000D02*
X166370000Y-45720000D01*
X151765000Y-51435000D02*
X157480000Y-45720000D01*
X146050000Y-51435000D02*
X151765000Y-51435000D01*
X144145000Y-49530000D02*
X146050000Y-51435000D01*
X144145000Y-45720000D02*
X127000000Y-45720000D01*
X191770000Y-45720000D02*
X211455000Y-45720000D01*
X166370000Y-45720000D02*
X170180000Y-45720000D01*
X170180000Y-45720000D02*
X173990000Y-45720000D01*
X173990000Y-45720000D02*
X191770000Y-45720000D01*
X97790000Y-45720000D02*
X119380000Y-45720000D01*
X123190000Y-45720000D02*
X127000000Y-45720000D01*
X119380000Y-45720000D02*
X123190000Y-45720000D01*
M02*
